<?xml version="1.0" standalone="no"?>
<!DOCTYPE svg PUBLIC "-//W3C//DTD SVG 20010904//EN"
 "http://www.w3.org/TR/2001/REC-SVG-20010904/DTD/svg10.dtd">
<svg version="1.0" xmlns="http://www.w3.org/2000/svg"
 width="1280.000000pt" height="1280.000000pt" viewBox="0 0 1280.000000 1280.000000"
 preserveAspectRatio="xMidYMid meet">

<g transform="translate(0.000000,1280.000000) scale(0.100000,-0.100000)"
fill="#000000" stroke="none">
<path d="M6195 11274 c-443 -27 -885 -96 -1143 -179 -59 -18 -168 -53 -242
-75 -291 -90 -685 -266 -975 -436 -131 -76 -408 -258 -476 -311 -245 -190
-473 -393 -637 -566 -134 -141 -297 -325 -321 -361 -9 -13 -61 -84 -117 -158
-230 -304 -434 -660 -602 -1053 -39 -90 -159 -424 -177 -490 -69 -257 -85
-323 -104 -410 -11 -55 -29 -152 -40 -215 -19 -109 -26 -163 -51 -375 -18
-144 -24 -630 -11 -818 62 -910 335 -1723 834 -2487 301 -462 751 -938 1197
-1269 63 -47 121 -92 129 -99 27 -26 246 -166 372 -237 584 -332 1082 -509
1784 -636 431 -78 1163 -78 1600 0 581 103 1060 259 1507 489 420 217 673 386
1053 708 127 107 467 449 535 537 22 28 87 111 145 182 184 226 377 529 534
838 453 892 630 1904 511 2917 -30 249 -63 424 -130 685 -45 177 -108 374
-166 523 -13 34 -36 92 -50 130 -69 178 -243 516 -382 742 -290 471 -711 947
-1141 1289 -57 45 -110 89 -118 97 -85 85 -634 424 -860 531 -585 276 -1189
441 -1810 493 -132 11 -551 20 -648 14z m695 -329 c288 -28 596 -86 874 -166
148 -42 332 -104 350 -117 6 -5 34 -17 61 -27 163 -59 522 -232 692 -333 225
-135 574 -389 723 -527 381 -353 617 -624 845 -970 122 -187 138 -212 185
-300 61 -112 199 -392 218 -441 11 -27 42 -105 70 -174 110 -274 200 -607 256
-940 144 -864 47 -1767 -276 -2575 -67 -166 -204 -454 -270 -567 -24 -40 -52
-89 -62 -108 -28 -52 -180 -280 -241 -363 -30 -39 -69 -92 -87 -117 -121 -163
-385 -450 -550 -597 -293 -261 -438 -373 -688 -528 -69 -43 -152 -95 -185
-116 -196 -122 -543 -275 -885 -389 -250 -84 -321 -104 -520 -144 -366 -75
-652 -100 -1065 -93 -382 6 -619 31 -955 102 -237 50 -574 158 -844 270 -171
71 -447 207 -511 251 -22 15 -78 50 -125 77 -154 91 -445 294 -501 349 -8 8
-63 56 -124 108 -313 265 -601 587 -851 950 -82 119 -129 193 -172 270 -14 25
-44 79 -67 120 -259 459 -463 1071 -541 1615 -57 402 -60 919 -8 1320 69 533
224 1038 468 1525 282 561 622 1003 1123 1458 175 158 499 395 738 539 127 76
416 219 570 282 72 29 150 62 175 73 75 34 306 107 465 148 293 75 552 119
820 140 77 6 160 12 185 14 95 8 562 -4 710 -19z"/>
<path d="M4935 8799 c-208 -13 -210 -14 -228 -57 -22 -50 -32 -92 -62 -267
-77 -449 -94 -535 -105 -535 -5 0 -16 24 -25 53 -22 67 -122 333 -140 372 -8
17 -37 89 -64 160 -75 199 -82 215 -98 215 -8 0 -11 -4 -8 -10 3 -5 -7 -12
-22 -16 -15 -3 -39 -10 -53 -14 -25 -8 -25 -8 5 -10 30 -1 30 -1 6 -11 -17 -7
-34 -6 -52 1 -15 7 -44 10 -66 9 -31 -3 -38 0 -37 14 1 12 -5 17 -25 16 -41
-1 -128 -16 -103 -18 29 -1 28 -19 -2 -27 -28 -7 -49 2 -41 17 4 5 1 9 -5 9
-6 0 -9 -8 -6 -17 2 -10 7 -49 11 -88 11 -138 15 -155 33 -155 16 -1 16 -2 1
-13 -16 -12 -14 -35 17 -302 19 -160 36 -328 39 -375 7 -103 9 -110 35 -110
11 0 20 -4 20 -10 0 -5 -9 -10 -21 -10 -18 0 -20 -4 -14 -47 4 -27 14 -53 22
-60 8 -6 12 -17 8 -23 -4 -6 -8 -22 -10 -35 -2 -19 4 -25 26 -30 33 -8 35 -11
13 -32 -19 -19 -4 -33 36 -33 20 0 22 2 10 10 -13 8 -12 10 4 10 12 0 16 5 12
15 -4 12 6 14 64 13 39 -1 70 -6 70 -10 0 -8 -16 -12 -34 -9 -4 1 -14 -3 -22
-10 -8 -6 -20 -9 -28 -6 -8 3 -21 -4 -30 -17 -10 -16 -28 -25 -56 -29 -23 -3
-44 -8 -47 -11 -3 -3 -2 -50 2 -104 6 -91 9 -99 26 -95 10 3 19 0 19 -6 0 -6
-7 -11 -15 -11 -12 0 -15 -9 -11 -37 3 -21 5 -57 5 -80 1 -26 7 -47 17 -55 8
-7 23 -20 33 -28 9 -8 25 -16 34 -16 27 -3 2 22 -31 32 l-27 7 30 6 c44 10 71
2 72 -20 1 -10 -3 -22 -9 -25 -20 -12 -78 -22 -78 -13 0 5 -7 9 -15 9 -13 0
-14 -4 -5 -21 7 -11 9 -27 6 -35 -3 -8 -3 -35 1 -59 5 -43 7 -45 39 -45 19 0
34 5 34 10 0 6 -6 10 -14 10 -12 0 -26 20 -26 37 0 3 17 3 38 1 33 -3 38 -1
34 14 -3 14 -12 17 -42 13 -22 -3 -41 -1 -44 4 -8 12 4 41 16 41 5 0 6 -4 3
-10 -10 -17 7 -11 22 8 10 12 16 13 19 5 4 -8 17 -10 37 -7 27 5 30 3 17 -8
-16 -14 -15 -58 1 -58 5 0 9 -4 9 -10 0 -5 -9 -10 -19 -10 -10 0 -21 -7 -25
-15 -6 -17 9 -21 19 -5 5 7 11 8 19 1 10 -8 202 2 212 11 1 2 -2 66 -7 143 -8
133 -16 222 -39 430 -5 50 -15 146 -20 215 -6 69 -14 162 -18 208 -4 46 -5 85
-1 87 9 6 19 -20 98 -255 148 -439 156 -460 170 -460 9 0 12 -9 9 -32 -6 -37
34 -154 51 -151 6 2 8 -8 5 -25 -3 -16 1 -35 10 -47 l15 -20 1 20 c0 11 3 38
7 59 4 28 3 37 -6 32 -6 -4 -14 0 -18 11 -3 10 -14 27 -25 39 -16 18 -17 23
-4 33 8 7 20 10 27 6 8 -6 8 -2 0 13 -6 11 -16 22 -23 25 -17 6 20 36 45 37
14 0 17 -5 12 -20 -3 -11 -2 -20 4 -20 11 0 17 16 27 73 5 33 3 41 -21 63 -26
24 -27 26 -9 39 12 9 14 14 6 15 -7 0 -10 5 -6 11 9 16 25 -11 18 -33 -2 -9 0
-19 6 -23 10 -6 13 10 10 59 -1 16 3 32 9 36 16 9 3 38 -20 45 -20 7 -27 35
-9 35 6 0 10 -6 10 -14 0 -11 20 -26 35 -26 2 0 7 26 10 58 4 31 13 79 21 106
16 58 19 110 4 86 -13 -20 -19 -10 -13 22 3 17 10 25 19 21 10 -4 14 3 15 23
3 47 4 56 18 134 26 139 33 114 51 -180 15 -237 20 -274 33 -261 19 19 34 12
40 -16 7 -37 -3 -45 -34 -29 l-25 13 4 -61 c14 -225 41 -449 55 -463 12 -12
28 -14 82 -8 57 6 64 9 49 19 -10 8 -14 18 -10 25 6 9 11 9 22 0 11 -9 14 -8
14 5 0 20 5 20 29 -1 20 -17 19 -39 -1 -27 -6 4 -8 3 -5 -3 10 -16 66 -3 72
18 5 15 12 18 33 13 22 -5 25 -4 15 7 -19 19 -16 36 8 42 17 4 19 10 13 29 -4
13 -15 30 -25 39 -25 21 -24 29 4 30 15 1 17 3 5 6 -19 5 -31 30 -18 38 6 4 2
17 -8 33 -16 24 -16 26 0 19 23 -8 32 8 12 24 -17 14 -44 62 -44 79 0 5 7 10
15 10 8 0 19 9 25 20 11 21 8 24 -25 20 -19 -2 -19 -1 -2 17 21 24 22 33 2 33
-21 0 -19 37 4 49 24 14 34 40 20 57 -6 7 -8 23 -3 36 8 25 15 101 7 80 -9
-23 -19 -3 -17 32 2 26 -1 36 -11 36 -8 0 -15 5 -15 10 0 6 4 10 10 10 5 0 7
7 4 15 -4 8 0 22 7 31 11 13 9 14 -14 9 -27 -7 -38 7 -17 20 19 12 10 25 -16
25 -34 0 -26 24 9 28 29 4 38 22 11 22 -9 0 -14 5 -12 11 2 6 7 10 12 9 5 -1
13 4 17 12 12 18 11 51 0 43 -18 -10 -23 16 -7 34 15 17 15 19 1 25 -10 4 -15
15 -13 33 3 24 0 28 -19 26 -15 -2 -23 3 -23 13 0 8 4 12 10 9 5 -3 22 5 36
18 25 24 26 25 9 50 -10 15 -22 24 -31 20 -8 -3 -14 0 -14 6 0 6 5 11 11 11 8
0 8 5 -1 15 -7 8 -9 22 -6 31 4 9 1 23 -6 32 -10 12 -10 16 0 19 6 3 12 16 12
30 0 25 22 56 34 48 3 -3 1 1 -5 8 -9 9 -12 9 -16 0 -9 -24 -23 -13 -23 16 0
17 6 31 16 35 10 4 13 13 9 26 -4 12 -2 20 5 20 6 0 8 5 5 10 -3 6 -15 10 -26
10 -23 0 -24 6 -4 27 9 8 14 23 11 32 -16 59 -17 66 -7 51 9 -13 11 -13 11 2
0 9 3 23 6 31 3 10 -2 18 -15 22 -27 8 -27 35 -1 35 11 0 21 6 21 13 8 62 6
84 -8 99 -13 15 -14 20 -3 34 12 13 11 17 -1 25 -11 7 -11 11 -1 17 7 5 10 16
6 25 -7 19 -5 19 -209 6z m-915 -139 c12 -8 9 -10 -13 -10 -16 0 -26 4 -22 10
8 12 16 12 35 0z m80 -30 c0 -5 -4 -10 -10 -10 -5 0 -10 5 -10 10 0 6 5 10 10
10 6 0 10 -4 10 -10z m-200 -70 c0 -5 -7 -10 -16 -10 -8 0 -12 5 -9 10 3 6 10
10 16 10 5 0 9 -4 9 -10z m862 -115 c0 -5 -5 -11 -11 -13 -6 -2 -11 4 -11 13
0 9 5 15 11 13 6 -2 11 -8 11 -13z m-639 -121 c32 -12 17 -25 -20 -18 -21 4
-40 9 -43 11 -7 7 24 23 35 18 6 -3 18 -8 28 -11z m691 7 c3 -5 -1 -11 -9 -15
-15 -6 -29 7 -18 18 9 9 21 8 27 -3z m-573 -16 c-1 -15 -24 -12 -29 3 -3 9 2
13 12 10 10 -1 17 -7 17 -13z m869 -35 c0 -5 -7 -10 -15 -10 -8 0 -15 5 -15
10 0 6 7 10 15 10 8 0 15 -4 15 -10z m-273 -36 c-3 -3 -12 -4 -19 -1 -8 3 -5
6 6 6 11 1 17 -2 13 -5z m83 -54 c0 -5 -2 -10 -4 -10 -3 0 -8 5 -11 10 -3 6
-1 10 4 10 6 0 11 -4 11 -10z m150 -10 c0 -5 -2 -10 -4 -10 -3 0 -8 5 -11 10
-3 6 -1 10 4 10 6 0 11 -4 11 -10z m-805 -90 c-3 -5 -10 -10 -16 -10 -5 0 -9
5 -9 10 0 6 7 10 16 10 8 0 12 -4 9 -10z m785 -14 c0 -3 -4 -8 -10 -11 -5 -3
-10 -1 -10 4 0 6 5 11 10 11 6 0 10 -2 10 -4z m-200 -34 c0 -13 -12 -22 -22
-16 -10 6 -1 24 13 24 5 0 9 -4 9 -8z m270 -2 c0 -5 -4 -10 -10 -10 -5 0 -10
5 -10 10 0 6 5 10 10 10 6 0 10 -4 10 -10z m-185 -20 c3 -5 -1 -10 -9 -10 -9
0 -16 5 -16 10 0 6 4 10 9 10 6 0 13 -4 16 -10z m-855 -94 c0 -8 -5 -18 -11
-22 -14 -8 -33 11 -25 25 10 16 36 13 36 -3z m1078 -107 c-2 -6 -8 -10 -13
-10 -5 0 -11 4 -13 10 -2 6 4 11 13 11 9 0 15 -5 13 -11z m-33 -19 c3 -5 1
-10 -4 -10 -6 0 -11 5 -11 10 0 6 2 10 4 10 3 0 8 -4 11 -10z m-1007 -32 c-3
-7 -13 -13 -23 -13 -10 0 -20 6 -22 13 -3 7 5 12 22 12 17 0 25 -5 23 -12z
m-83 -28 c-3 -5 -13 -10 -21 -10 -8 0 -12 5 -9 10 3 6 13 10 21 10 8 0 12 -4
9 -10z m78 -37 c-7 -2 -21 -2 -30 0 -10 3 -4 5 12 5 17 0 24 -2 18 -5z m957
-13 c0 -5 -4 -10 -10 -10 -5 0 -10 5 -10 10 0 6 5 10 10 10 6 0 10 -4 10 -10z
m-933 -16 c-3 -3 -12 -4 -19 -1 -8 3 -5 6 6 6 11 1 17 -2 13 -5z m1023 -34 c0
-5 -2 -10 -4 -10 -3 0 -8 5 -11 10 -3 6 -1 10 4 10 6 0 11 -4 11 -10z m-1030
-20 c0 -5 -7 -10 -15 -10 -8 0 -15 5 -15 10 0 6 7 10 15 10 8 0 15 -4 15 -10z
m-45 -9 c9 -16 -35 -33 -76 -29 -27 2 -39 0 -39 -9 0 -7 -7 -13 -15 -13 -25 0
-18 39 8 45 72 15 114 17 122 6z m35 -40 c0 -17 -20 -23 -48 -16 l-27 8 25 7
c36 11 50 11 50 1z m1030 -1 c0 -5 -7 -10 -15 -10 -8 0 -15 -7 -15 -15 0 -16
-12 -20 -23 -8 -9 8 24 42 41 42 6 1 12 -3 12 -9z m-1160 -40 c0 -5 -6 -10
-14 -10 -8 0 -18 5 -21 10 -3 6 3 10 14 10 12 0 21 -4 21 -10z m896 -27 c-10
-10 -19 5 -10 18 6 11 8 11 12 0 2 -7 1 -15 -2 -18z m-606 10 c0 -5 -7 -16
-14 -26 -16 -20 -32 -6 -22 18 5 15 36 21 36 8z m-270 -23 c0 -5 -4 -10 -9
-10 -6 0 -13 5 -16 10 -3 6 1 10 9 10 9 0 16 -4 16 -10z m870 -35 c0 -8 -4
-15 -10 -15 -5 0 -10 7 -10 15 0 8 5 15 10 15 6 0 10 -7 10 -15z m-595 -5 c-3
-5 -11 -10 -16 -10 -6 0 -7 5 -4 10 3 6 11 10 16 10 6 0 7 -4 4 -10z m753 -52
c-3 -7 -15 -15 -28 -16 -21 -3 -22 -2 -11 12 16 19 44 21 39 4z m62 -8 c0 -5
-4 -10 -10 -10 -5 0 -10 5 -10 10 0 6 5 10 10 10 6 0 10 -4 10 -10z m-919 -45
c-1 -15 -24 -12 -29 3 -3 9 2 13 12 10 10 -1 17 -7 17 -13z m-81 -20 c0 -17
-2 -18 -25 -9 -13 5 -14 8 -3 15 19 13 28 11 28 -6z m-6 -45 c-15 -15 -56 -17
-61 -2 -3 8 7 12 33 12 25 0 35 -3 28 -10z m821 -30 c16 -18 16 -20 1 -35 -21
-21 -36 -11 -36 26 0 34 10 37 35 9z m-840 -19 c7 -12 -77 -31 -89 -20 -4 4
-5 12 -2 18 9 13 83 15 91 2z m23 -33 c-3 -7 -24 -14 -49 -16 -68 -5 -32 19
39 27 8 0 12 -5 10 -11z m162 -8 c0 -15 -19 -22 -42 -14 -20 6 -21 7 -4 20 18
13 46 9 46 -6z m390 -31 c0 -6 -4 -7 -10 -4 -5 3 -10 11 -10 16 0 6 5 7 10 4
6 -3 10 -11 10 -16z m280 6 c10 -13 9 -15 -9 -15 -12 0 -21 6 -21 15 0 8 4 15
9 15 5 0 14 -7 21 -15z m-674 -34 c-3 -5 -15 -7 -26 -4 -28 7 -25 13 6 13 14
0 23 -4 20 -9z m646 -23 c-9 -9 -12 -7 -12 12 0 19 3 21 12 12 9 -9 9 -15 0
-24z m-834 10 c-3 -7 -11 -13 -18 -13 -7 0 -15 6 -17 13 -3 7 4 12 17 12 13 0
20 -5 18 -12z m112 -6 c0 -5 -20 -13 -45 -19 -34 -8 -45 -7 -49 3 -3 7 0 15 7
18 20 8 87 6 87 -2z m-53 -48 c-3 -3 -12 -4 -19 -1 -8 3 -5 6 6 6 11 1 17 -2
13 -5z m453 -14 c0 -5 -2 -10 -4 -10 -3 0 -8 5 -11 10 -3 6 -1 10 4 10 6 0 11
-4 11 -10z m-420 -49 c0 -14 -18 -23 -30 -16 -6 4 -8 11 -5 16 8 12 35 12 35
0z m20 -57 c0 -2 -7 -4 -15 -4 -8 0 -15 4 -15 10 0 5 7 7 15 4 8 -4 15 -8 15
-10z m-20 -24 c0 -5 -4 -10 -9 -10 -6 0 -13 5 -16 10 -3 6 1 10 9 10 9 0 16
-4 16 -10z m775 -90 c3 -5 1 -10 -4 -10 -6 0 -11 5 -11 10 0 6 2 10 4 10 3 0
8 -4 11 -10z"/>
<path d="M6215 8801 c-8 -14 12 -23 36 -16 11 4 64 7 116 7 53 0 106 4 117 8
13 6 -33 9 -121 9 -78 1 -144 -3 -148 -8z"/>
<path d="M6623 8802 c31 -7 12 -27 -24 -25 -61 5 -94 2 -102 -6 -5 -5 -22 -5
-39 -1 -32 10 -54 5 -81 -19 -14 -12 -20 -12 -26 -3 -5 8 -17 11 -33 7 -15 -4
-29 -2 -32 4 -11 16 -46 13 -46 -4 0 -8 -6 -15 -14 -15 -17 0 -26 -22 -26 -66
0 -27 6 -36 30 -49 31 -16 39 -40 18 -48 -10 -4 -10 -6 0 -6 17 -1 15 -21 -2
-21 -16 0 -28 -24 -20 -44 3 -8 1 -17 -5 -20 -6 -4 -8 -13 -4 -21 3 -10 -1
-15 -11 -15 -27 0 -36 -41 -15 -64 21 -22 16 -38 -9 -29 -14 5 -15 3 -4 -8 17
-18 15 -39 -3 -39 -14 0 -13 -3 1 -25 15 -23 15 -25 -1 -25 -12 0 -15 -5 -10
-17 4 -10 8 -26 9 -35 1 -10 5 -21 9 -24 4 -4 -3 -12 -15 -18 -25 -13 -39 -42
-15 -33 24 9 29 -5 6 -21 -19 -13 -19 -15 -3 -26 16 -12 16 -14 -5 -35 -27
-27 -41 -109 -20 -122 12 -8 12 -10 0 -18 -9 -6 -15 -32 -17 -75 -2 -37 -6
-71 -9 -76 -3 -6 -1 -10 4 -10 6 0 11 7 11 15 0 8 4 15 10 15 11 0 8 -35 -3
-46 -12 -12 -8 -24 7 -24 30 0 26 -20 -4 -26 -22 -5 -28 -10 -21 -17 15 -15
14 -27 -4 -27 -8 0 -15 -4 -15 -10 0 -14 23 -13 38 2 9 9 12 8 12 -6 0 -9 -4
-14 -10 -11 -5 3 -10 -1 -10 -9 0 -9 -7 -16 -15 -16 -8 0 -15 -1 -15 -2 -1 -2
-3 -29 -6 -61 -5 -49 -4 -56 10 -51 9 3 16 1 16 -5 0 -6 -7 -11 -15 -11 -8 0
-15 -1 -16 -2 -7 -27 -12 -158 -6 -158 5 0 5 -6 -1 -12 -15 -19 -21 -57 -37
-238 -18 -194 -18 -213 -6 -205 5 3 12 1 16 -5 9 -14 35 -12 68 4 15 8 27 11
27 5 0 -5 8 -9 18 -9 10 0 24 -6 31 -12 11 -11 13 -10 8 4 -8 23 2 29 26 17
15 -8 22 -8 28 2 6 11 14 11 42 1 53 -19 64 -16 71 24 5 25 2 43 -9 60 -13 21
-13 24 -1 24 16 0 22 25 30 128 2 35 7 66 10 69 16 16 317 25 333 10 4 -5 1
-14 -8 -20 -19 -14 -20 -58 -1 -70 17 -11 15 -27 -4 -27 -13 0 -15 -6 -9 -27
10 -38 12 -114 2 -120 -4 -2 -1 -11 7 -18 8 -8 17 -20 19 -27 4 -10 8 -10 16
2 8 12 12 12 29 -3 25 -23 35 -21 21 4 -9 17 -8 20 1 14 10 -6 11 -1 6 19 -5
19 -3 26 8 26 9 0 24 9 34 21 18 19 20 19 37 3 14 -15 20 -15 37 -5 17 11 19
10 16 -6 -2 -10 -13 -19 -26 -21 -30 -5 -18 -22 16 -23 15 0 21 -3 15 -6 -21
-8 -15 -33 8 -33 11 0 17 5 14 10 -3 6 0 10 8 10 8 0 17 -7 21 -15 28 -74 36
122 11 252 -9 43 -20 96 -25 118 -5 24 -5 44 1 50 12 13 11 62 -2 71 -6 3 -9
16 -6 28 2 11 1 32 -3 46 -3 14 -2 34 3 46 14 33 -19 627 -41 746 -5 26 -7 59
-5 73 4 19 0 27 -19 34 -41 15 -51 35 -28 56 15 13 17 22 10 36 -13 24 -13 29
4 29 20 0 14 154 -8 178 -9 11 -16 36 -16 59 0 49 -17 67 -44 48 -22 -17 -46
-9 -46 15 0 22 -51 44 -85 38 -14 -3 -28 -1 -31 3 -3 5 0 9 5 9 6 0 11 4 11 9
0 5 -17 9 -37 8 -21 0 -30 -2 -20 -5z m-63 -282 c0 -17 7 -33 18 -39 14 -9 15
-12 3 -20 -10 -7 -12 -20 -6 -57 5 -27 8 -52 7 -56 -1 -5 7 -8 18 -8 11 0 20
-7 20 -15 0 -14 -12 -19 -32 -16 -5 0 -8 -15 -8 -34 0 -27 5 -38 23 -46 29
-14 60 -56 53 -75 -10 -26 -26 -15 -26 18 l0 32 -20 -22 c-20 -22 -21 -24 -6
-189 8 -93 20 -255 27 -362 11 -172 15 -196 33 -212 16 -16 17 -19 4 -19 -9 0
-18 -4 -20 -9 -3 -8 -178 -16 -245 -12 -30 1 -29 19 0 30 21 8 23 18 40 192
10 101 27 276 38 389 14 140 17 206 10 208 -6 2 -11 10 -11 18 0 9 5 12 10 9
6 -3 10 3 10 14 0 11 -5 23 -10 26 -8 5 -8 11 0 19 11 15 5 61 -16 121 -12 34
-12 47 -1 85 10 37 17 45 37 46 13 1 26 7 28 13 7 20 22 0 22 -29z m60 -44 c0
-3 -4 -8 -10 -11 -5 -3 -10 -1 -10 4 0 6 5 11 10 11 6 0 10 -2 10 -4z m90 0
c0 -3 -4 -8 -10 -11 -5 -3 -10 -1 -10 4 0 6 5 11 10 11 6 0 10 -2 10 -4z
m-250 -96 c0 -5 -5 -10 -11 -10 -5 0 -7 5 -4 10 3 6 8 10 11 10 2 0 4 -4 4
-10z m285 -200 c3 -6 -1 -13 -9 -16 -9 -3 -14 -10 -11 -14 3 -5 -4 -6 -15 -3
-31 8 -34 22 -8 32 31 13 36 13 43 1z m185 -20 c0 -5 -5 -10 -11 -10 -5 0 -7
5 -4 10 3 6 8 10 11 10 2 0 4 -4 4 -10z m-700 -164 c0 -3 -4 -8 -10 -11 -5 -3
-10 -1 -10 4 0 6 5 11 10 11 6 0 10 -2 10 -4z m66 -21 c-10 -8 -23 -12 -28 -9
-14 9 2 24 25 24 21 -1 21 -1 3 -15z m-106 -125 c0 -5 -4 -10 -9 -10 -6 0 -13
5 -16 10 -3 6 1 10 9 10 9 0 16 -4 16 -10z m-30 -20 c0 -5 -7 -10 -15 -10 -8
0 -15 5 -15 10 0 6 7 10 15 10 8 0 15 -4 15 -10z m615 -30 c3 -5 1 -10 -4 -10
-6 0 -11 5 -11 10 0 6 2 10 4 10 3 0 8 -4 11 -10z m-555 -80 c0 -5 -7 -10 -15
-10 -8 0 -15 5 -15 10 0 6 7 10 15 10 8 0 15 -4 15 -10z m595 -290 c3 -5 1
-10 -4 -10 -6 0 -11 5 -11 10 0 6 2 10 4 10 3 0 8 -4 11 -10z m-710 -30 c3 -5
1 -10 -4 -10 -6 0 -11 5 -11 10 0 6 2 10 4 10 3 0 8 -4 11 -10z m165 0 c0 -5
-5 -10 -11 -10 -5 0 -7 5 -4 10 3 6 8 10 11 10 2 0 4 -4 4 -10z m490 -49 c0
-12 -20 -25 -27 -18 -7 7 6 27 18 27 5 0 9 -4 9 -9z m137 -18 c-4 -3 -2 -12 4
-19 12 -15 3 -37 -12 -29 -13 9 -11 55 3 55 6 0 8 -3 5 -7z m-42 -52 c3 -5 1
-12 -5 -16 -5 -3 -10 1 -10 9 0 18 6 21 15 7z m115 -41 c0 -5 -5 -10 -11 -10
-5 0 -7 5 -4 10 3 6 8 10 11 10 2 0 4 -4 4 -10z m-670 -80 c0 -5 -2 -10 -4
-10 -3 0 -8 5 -11 10 -3 6 -1 10 4 10 6 0 11 -4 11 -10z m530 -10 c0 -5 -5
-10 -11 -10 -5 0 -7 5 -4 10 3 6 8 10 11 10 2 0 4 -4 4 -10z m-450 -20 c0 -5
-2 -10 -4 -10 -3 0 -8 5 -11 10 -3 6 -1 10 4 10 6 0 11 -4 11 -10z m490 -3 c0
-22 -11 -27 -33 -16 -16 9 -17 13 -6 20 21 13 39 11 39 -4z m-80 -47 c0 -5 -5
-10 -11 -10 -5 0 -7 5 -4 10 3 6 8 10 11 10 2 0 4 -4 4 -10z m50 -35 c16 -19
5 -34 -12 -17 -7 7 -20 12 -31 12 -10 0 -15 5 -12 10 9 15 41 12 55 -5z m-20
-35 c0 -5 -4 -10 -10 -10 -5 0 -10 5 -10 10 0 6 5 10 10 10 6 0 10 -4 10 -10z"/>
<path d="M4120 8730 c0 -5 7 -10 16 -10 8 0 12 5 9 10 -3 6 -10 10 -16 10 -5
0 -9 -4 -9 -10z"/>
<path d="M8200 8724 c0 -16 -21 -19 -35 -5 -6 5 -20 5 -35 -1 -14 -6 -47 -12
-73 -14 -59 -5 -93 -22 -140 -71 -49 -49 -73 -112 -57 -143 8 -15 9 -25 2 -29
-5 -3 -12 -22 -15 -41 -7 -43 -19 -267 -21 -381 -1 -46 -5 -90 -10 -97 -4 -7
-4 -18 1 -25 9 -13 9 -33 0 -57 -13 -35 -15 -78 -4 -89 8 -8 9 -16 0 -29 -23
-37 -39 -260 -21 -295 6 -12 6 -23 -1 -31 -6 -7 -14 -61 -18 -120 -5 -94 -4
-106 9 -101 9 4 19 2 23 -4 3 -7 -2 -11 -14 -11 -11 0 -23 -4 -26 -10 -3 -5 3
-10 14 -10 11 0 23 -4 26 -10 3 -5 0 -10 -8 -10 -17 0 -37 -42 -37 -78 0 -34
28 -94 69 -150 27 -36 34 -41 51 -32 10 5 26 7 36 3 12 -4 15 -3 10 5 -4 7 -1
12 8 12 12 0 13 -5 7 -22 -7 -17 -16 -22 -36 -21 -22 2 -24 -1 -15 -12 16 -20
90 -57 90 -45 0 6 9 10 21 10 14 0 19 -5 16 -15 -9 -22 9 -27 28 -9 13 13 14
19 4 25 -16 9 -12 14 19 24 19 5 23 3 22 -12 -4 -36 0 -63 10 -63 5 0 7 14 3
33 -6 29 -5 31 10 18 9 -7 17 -21 17 -31 0 -9 6 -17 13 -17 6 0 19 -2 27 -4 9
-3 16 5 18 19 2 16 8 22 19 18 8 -3 19 -6 24 -6 5 0 9 -7 9 -15 0 -17 -16 -20
-23 -5 -3 6 -4 5 -3 -2 4 -19 53 -28 140 -27 65 1 91 7 140 30 34 16 74 43 89
61 26 31 28 31 21 8 -5 -22 0 -19 41 20 25 25 55 59 65 75 22 37 47 222 31
238 -13 13 -92 25 -218 33 l-103 7 -1 -44 c-1 -79 -21 -132 -54 -148 -16 -8
-43 -21 -59 -29 -26 -14 -29 -14 -23 1 8 20 -12 27 -81 27 -31 0 -65 6 -74 14
-39 29 -39 53 -8 449 82 1043 72 956 112 990 30 26 38 28 88 23 125 -14 160
-23 186 -47 26 -23 26 -27 21 -112 -4 -63 -2 -89 6 -92 7 -3 50 -7 97 -9 47
-2 116 -9 153 -15 37 -7 72 -9 76 -6 13 8 34 199 26 237 -24 110 -145 236
-262 272 -17 6 -23 3 -23 -8 0 -19 -30 -36 -64 -36 -14 0 -26 -4 -26 -10 0 -5
-11 -10 -25 -10 -18 0 -25 5 -25 20 0 11 6 20 13 21 6 1 -4 5 -23 9 -37 9 -75
-4 -64 -22 4 -5 3 -13 -2 -17 -5 -3 -16 -19 -24 -35 -17 -33 -40 -46 -40 -22
0 9 4 16 9 16 17 0 7 40 -11 46 -30 9 -21 27 11 21 35 -7 44 0 31 23 -8 16
-14 17 -39 7 -21 -8 -42 -8 -75 0 -37 8 -46 8 -46 -3z m15 -54 c3 -5 1 -10 -4
-10 -6 0 -11 5 -11 10 0 6 2 10 4 10 3 0 8 -4 11 -10z m69 -36 c11 -29 -33
-60 -49 -34 -7 12 16 50 31 50 7 0 15 -7 18 -16z m-284 -149 c0 -9 -6 -12 -15
-9 -8 4 -12 10 -9 15 8 14 24 10 24 -6z m188 -14 c3 -8 -1 -12 -9 -9 -7 2 -15
10 -17 17 -3 8 1 12 9 9 7 -2 15 -10 17 -17z m612 -81 c0 -13 -20 -13 -40 0
-12 8 -9 10 13 10 15 0 27 -4 27 -10z m-9 -60 c15 -9 17 -15 9 -30 -13 -24
-33 -26 -54 -5 -8 8 -22 15 -30 15 -24 0 -19 18 7 23 39 8 48 7 68 -3z m-125
-25 c-16 -16 -66 -21 -66 -6 0 10 23 18 58 20 21 1 22 -1 8 -14z m24 -15 c0
-5 7 -10 15 -10 8 0 15 -5 15 -10 0 -6 11 -8 25 -4 30 7 33 -1 5 -16 -14 -7
-32 -8 -55 -1 -19 5 -35 6 -35 2 0 -4 -9 -7 -20 -8 -29 -2 -25 15 5 23 14 3
25 12 25 20 0 8 5 14 10 14 6 0 10 -4 10 -10z m-823 -136 c-3 -3 -12 -4 -19
-1 -8 3 -5 6 6 6 11 1 17 -2 13 -5z m148 -14 c3 -5 1 -10 -4 -10 -6 0 -11 5
-11 10 0 6 2 10 4 10 3 0 8 -4 11 -10z m-55 -140 c0 -5 -4 -10 -10 -10 -5 0
-10 5 -10 10 0 6 5 10 10 10 6 0 10 -4 10 -10z m-5 -57 c-9 -8 -18 -13 -21
-10 -8 8 19 36 29 30 4 -2 0 -11 -8 -20z m29 -59 c21 -8 10 -24 -15 -24 -11 0
-17 -4 -14 -10 3 -5 -1 -10 -9 -10 -8 0 -18 5 -21 10 -3 6 -15 10 -26 10 -10
0 -19 5 -19 11 0 7 12 9 30 7 17 -3 33 -1 36 4 6 10 17 10 38 2z m53 -30 c-3
-3 -12 -4 -19 -1 -8 3 -5 6 6 6 11 1 17 -2 13 -5z m-107 -304 c0 -5 -7 -10
-16 -10 -8 0 -12 5 -9 10 3 6 10 10 16 10 5 0 9 -4 9 -10z m70 -20 c0 -5 -2
-10 -4 -10 -3 0 -8 5 -11 10 -3 6 -1 10 4 10 6 0 11 -4 11 -10z m-80 -309 c0
-6 -4 -13 -10 -16 -5 -3 -10 1 -10 9 0 9 5 16 10 16 6 0 10 -4 10 -9z m27
-147 c-9 -9 -28 6 -21 18 4 6 10 6 17 -1 6 -6 8 -13 4 -17z m-37 -14 c0 -5 -4
-10 -10 -10 -5 0 -10 5 -10 10 0 6 5 10 10 10 6 0 10 -4 10 -10z m58 -102 c-5
-15 -66 -29 -74 -17 -6 10 31 27 59 28 11 1 17 -4 15 -11z m32 -28 c0 -5 -7
-10 -15 -10 -8 0 -15 5 -15 10 0 6 7 10 15 10 8 0 15 -4 15 -10z m-130 -4 c0
-3 -4 -8 -10 -11 -5 -3 -10 -1 -10 4 0 6 5 11 10 11 6 0 10 -2 10 -4z m588 -2
c32 -9 28 -34 -6 -34 -21 0 -28 5 -28 20 0 22 1 22 34 14z m122 -34 c0 -13
-11 -13 -30 0 -12 8 -11 10 8 10 12 0 22 -4 22 -10z m-280 -60 c8 -5 11 -12 8
-16 -10 -9 -38 3 -38 16 0 12 10 13 30 0z m0 -40 c0 -5 -4 -10 -10 -10 -5 0
-10 5 -10 10 0 6 5 10 10 10 6 0 10 -4 10 -10z m17 -22 c-3 -8 -6 -5 -6 6 -1
11 2 17 5 13 3 -3 4 -12 1 -19z"/>
<path d="M4020 8719 c0 -10 77 -5 87 5 4 3 -14 6 -40 5 -26 -1 -47 -6 -47 -10z"/>
<path d="M5190 7191 c0 -5 7 -12 16 -15 14 -5 15 -4 4 9 -14 17 -20 19 -20 6z"/>
<path d="M6415 7140 c-19 -8 -19 -9 2 -9 12 -1 25 4 28 9 7 12 -2 12 -30 0z"/>
<path d="M4651 7023 c0 -12 -7 -23 -13 -26 -10 -4 -10 -7 -1 -17 10 -11 13
-10 18 3 4 8 5 26 2 39 -4 22 -4 22 -6 1z"/>
<path d="M6842 6910 c-11 -18 -10 -20 8 -20 13 0 20 7 20 20 0 11 -3 20 -8 20
-4 0 -13 -9 -20 -20z"/>
<path d="M6835 6864 c-9 -9 -13 -19 -10 -22 3 -3 15 4 28 16 12 12 16 22 10
22 -6 0 -19 -7 -28 -16z"/>
<path d="M6894 6865 c-3 -8 -14 -17 -25 -20 -10 -4 -19 -10 -19 -15 0 -5 13
-1 30 8 16 9 30 23 30 30 0 17 -9 15 -16 -3z"/>
<path d="M5190 6830 c-12 -8 -11 -10 8 -10 12 0 22 5 22 10 0 13 -11 13 -30 0z"/>
<path d="M5717 6268 c-4 -12 -4 -32 -1 -44 3 -12 1 -25 -5 -28 -16 -10 -13
-56 5 -91 8 -16 11 -31 6 -33 -4 -1 -6 -16 -4 -32 3 -20 0 -30 -8 -30 -9 0 -8
-6 3 -18 20 -21 23 -57 5 -46 -8 5 -9 2 -4 -12 19 -48 24 -119 10 -141 -18
-29 -18 -47 1 -39 17 6 19 -7 5 -34 -7 -13 -7 -21 0 -25 14 -8 13 -48 -2 -63
-6 -6 -11 -33 -10 -59 1 -26 -4 -63 -9 -81 -8 -24 -8 -37 1 -48 9 -9 11 -33 7
-69 -3 -32 -2 -55 4 -55 5 0 7 -11 3 -25 -4 -17 -2 -25 7 -25 8 0 4 -9 -11
-21 -16 -14 -19 -19 -7 -15 20 6 22 -6 6 -36 -9 -17 -8 -23 5 -30 22 -12 20
-28 -3 -28 -15 0 -19 -7 -18 -35 1 -19 5 -35 10 -35 5 0 4 -6 -2 -13 -7 -9
-11 -114 -11 -328 -1 -173 -2 -330 -3 -349 -2 -28 3 -37 23 -47 14 -7 19 -13
13 -13 -7 0 -13 -4 -13 -10 0 -6 62 -10 165 -10 l165 0 -1 53 c-1 28 -6 57
-11 64 -6 7 -5 14 2 18 14 9 14 205 -1 205 -8 0 -8 4 1 14 8 11 11 92 10 303
-1 158 -1 293 -1 299 1 9 117 64 136 64 2 0 10 -19 16 -42 7 -24 18 -50 24
-58 21 -27 29 -44 17 -36 -16 9 -15 -4 2 -56 8 -24 26 -86 40 -138 41 -154 46
-173 60 -215 8 -22 17 -52 20 -67 4 -19 11 -26 21 -22 8 4 15 1 15 -5 0 -6 -4
-11 -10 -11 -5 0 -10 -5 -10 -11 0 -6 9 -8 20 -4 24 7 27 -10 4 -23 -14 -8
-13 -17 6 -91 11 -45 32 -118 46 -162 l25 -79 169 0 c101 0 170 4 170 9 0 14
-75 283 -100 358 -11 34 -20 71 -20 82 0 11 -9 26 -21 34 -12 9 -16 16 -9 19
22 7 0 58 -28 65 -22 5 -23 7 -9 18 23 16 17 43 -77 370 -26 88 -44 169 -41
181 2 11 15 25 28 31 59 27 155 195 124 215 -9 6 -8 10 2 17 17 11 22 82 7 94
-8 6 -7 10 2 14 6 2 12 11 12 18 0 7 -6 16 -12 18 -10 4 -9 8 2 17 11 8 5 9
-29 6 -51 -5 -62 -1 -54 19 3 10 19 15 44 15 36 0 39 2 38 28 0 15 -3 21 -6
14 -2 -6 -8 -10 -13 -7 -10 6 -1 45 10 45 6 0 7 24 1 51 0 4 -11 9 -23 13 -18
5 -20 8 -9 15 9 6 11 16 7 27 -5 14 -9 15 -15 5 -5 -7 -12 -13 -17 -14 -5 -1
-8 -7 -6 -13 2 -12 -54 -28 -69 -18 -5 3 -9 12 -9 20 0 13 14 18 48 17 6 -1
12 3 12 8 0 5 -7 9 -16 9 -11 0 -14 6 -8 23 9 29 10 31 30 23 13 -5 14 -9 5
-20 -10 -12 -8 -13 8 -9 17 4 18 8 8 24 -6 10 -19 19 -28 19 -22 0 -49 32 -32
37 20 7 -24 43 -52 43 -15 0 -25 6 -25 14 0 8 -8 18 -17 22 -10 5 -181 10
-379 12 l-361 3 -6 -23z m200 -43 c0 -18 -19 -15 -25 3 -2 7 3 12 11 12 7 0
14 -7 14 -15z m62 -51 c2 -2 -17 -4 -43 -4 -27 0 -45 4 -41 9 5 9 73 4 84 -5z
m571 -64 c0 -5 -4 -10 -9 -10 -6 0 -13 5 -16 10 -3 6 1 10 9 10 9 0 16 -4 16
-10z m-234 -113 c23 -27 24 -35 24 -167 l0 -139 -34 -33 c-18 -18 -39 -38 -47
-43 -14 -11 -188 -75 -202 -75 -4 0 -7 18 -7 39 0 22 -4 51 -10 65 -6 16 -6
27 0 31 6 4 10 28 10 56 0 40 -3 49 -17 49 -17 1 -17 1 0 14 14 11 17 29 17
104 0 53 -4 94 -10 97 -8 5 -7 12 1 22 10 12 36 14 132 11 116 -3 119 -4 143
-31z m-441 -28 c4 -6 5 -12 4 -13 -8 -7 -79 7 -79 15 0 13 67 11 75 -2z m60 1
c-3 -5 -10 -10 -16 -10 -5 0 -9 5 -9 10 0 6 7 10 16 10 8 0 12 -4 9 -10z
m-108 -36 c-3 -3 -12 -4 -19 -1 -8 3 -5 6 6 6 11 1 17 -2 13 -5z m783 -14 c0
-5 -9 -10 -20 -10 -11 0 -20 5 -20 10 0 6 9 10 20 10 11 0 20 -4 20 -10z
m-833 -32 c-3 -8 -6 -5 -6 6 -1 11 2 17 5 13 3 -3 4 -12 1 -19z m183 -14 c0
-8 -4 -12 -10 -9 -5 3 -10 10 -10 16 0 5 5 9 10 9 6 0 10 -7 10 -16z m-160
-14 c0 -5 -7 -10 -16 -10 -8 0 -12 5 -9 10 3 6 10 10 16 10 5 0 9 -4 9 -10z
m36 -5 c-3 -8 -1 -15 4 -15 6 0 10 -4 10 -10 0 -13 -27 -13 -35 0 -3 5 0 16 7
24 17 20 22 20 14 1z m49 -15 c3 -5 -1 -10 -9 -10 -9 0 -16 5 -16 10 0 6 4 10
9 10 6 0 13 -4 16 -10z m-10 -30 c-3 -6 1 -7 9 -4 11 4 16 0 16 -15 0 -16 -6
-21 -24 -21 -14 0 -27 4 -30 9 -9 14 5 41 21 41 8 0 11 -4 8 -10z m72 -5 c0
-8 -6 -16 -13 -19 -8 -3 -12 3 -11 15 1 22 24 26 24 4z m653 -15 c0 -5 -4 -10
-10 -10 -5 0 -10 5 -10 10 0 6 5 10 10 10 6 0 10 -4 10 -10z m-790 -10 c12 -8
9 -10 -13 -10 -16 0 -26 4 -22 10 8 12 16 12 35 0z m170 -4 c0 -11 -19 -15
-25 -6 -3 5 1 10 9 10 9 0 16 -2 16 -4z m670 -16 c0 -5 -4 -10 -10 -10 -5 0
-10 5 -10 10 0 6 5 10 10 10 6 0 10 -4 10 -10z m-32 -28 c3 -9 -2 -13 -14 -10
-9 1 -19 9 -22 16 -3 9 2 13 14 10 9 -1 19 -9 22 -16z m-773 -52 c3 -5 -1 -10
-10 -10 -9 0 -13 5 -10 10 3 6 8 10 10 10 2 0 7 -4 10 -10z m94 -15 c12 -13
-18 -25 -46 -19 -23 4 -30 11 -26 21 4 11 14 13 36 9 17 -3 33 -8 36 -11z
m-94 -25 c3 -5 1 -10 -4 -10 -6 0 -11 5 -11 10 0 6 2 10 4 10 3 0 8 -4 11 -10z
m125 0 c0 -5 -4 -10 -10 -10 -5 0 -10 5 -10 10 0 6 5 10 10 10 6 0 10 -4 10
-10z m334 -25 c-4 -8 -13 -15 -20 -15 -12 0 -12 3 -2 15 17 19 29 19 22 0z
m-316 -7 c-5 -16 -48 -24 -48 -10 0 11 17 20 38 21 8 1 12 -5 10 -11z m648
-13 c-3 -9 -11 -13 -16 -10 -8 5 -7 11 1 21 14 18 24 11 15 -11z m-846 -25 c0
-5 -2 -10 -4 -10 -3 0 -8 5 -11 10 -3 6 -1 10 4 10 6 0 11 -4 11 -10z m50 -8
c0 -4 -9 -15 -20 -25 -22 -19 -25 -15 -10 14 11 19 30 26 30 11z m27 -79 c-9
-9 -19 -14 -23 -11 -10 10 6 28 24 28 15 0 15 -1 -1 -17z m163 -23 c0 -5 -4
-10 -10 -10 -5 0 -10 5 -10 10 0 6 5 10 10 10 6 0 10 -4 10 -10z m-264 -100
c-10 -3 -17 -9 -17 -13 3 -27 1 -31 -11 -19 -9 9 -7 16 7 32 10 11 22 17 28
13 6 -4 4 -9 -7 -13z m594 -129 c0 -5 -9 -11 -20 -14 -12 -3 -20 -14 -20 -27
0 -12 -5 -20 -11 -18 -6 2 -11 8 -11 13 0 6 -4 15 -9 22 -11 12 5 28 19 19 4
-2 14 -1 22 5 19 11 30 11 30 0z m-580 -47 c0 -8 -5 -12 -10 -9 -6 4 -8 11 -5
16 9 14 15 11 15 -7z m622 -9 c0 -5 -5 -11 -11 -13 -6 -2 -11 4 -11 13 0 9 5
15 11 13 6 -2 11 -8 11 -13z m-66 -20 c-26 -19 -42 -19 -26 0 7 8 20 15 29 15
13 -1 13 -3 -3 -15z m148 -20 c3 -8 1 -15 -3 -15 -5 0 -11 7 -15 15 -3 8 -1
15 3 15 5 0 11 -7 15 -15z m-157 -167 c-3 -8 -6 -5 -6 6 -1 11 2 17 5 13 3 -3
4 -12 1 -19z m133 2 c0 -5 -1 -10 -3 -10 -1 0 -17 -4 -35 -9 -37 -11 -43 1 -9
17 28 14 47 15 47 2z m-90 -20 c0 -5 -4 -10 -10 -10 -5 0 -10 5 -10 10 0 6 5
10 10 10 6 0 10 -4 10 -10z m40 -30 c0 -5 -5 -10 -11 -10 -5 0 -7 5 -4 10 3 6
8 10 11 10 2 0 4 -4 4 -10z m186 -36 c-3 -9 -6 -18 -6 -20 0 -2 -7 -4 -15 -4
-18 0 -19 6 -2 25 16 19 31 19 23 -1z m-156 -34 c0 -5 -2 -10 -4 -10 -3 0 -8
5 -11 10 -3 6 -1 10 4 10 6 0 11 -4 11 -10z m60 0 c0 -5 -6 -10 -14 -10 -8 0
-16 -6 -19 -12 -3 -7 -4 -3 -4 10 1 14 8 22 19 22 10 0 18 -4 18 -10z m40 -45
c0 -8 -4 -15 -10 -15 -5 0 -10 7 -10 15 0 8 5 15 10 15 6 0 10 -7 10 -15z m12
-47 c-6 -6 -15 -8 -19 -4 -4 4 -1 11 7 16 8 5 17 7 19 4 3 -2 -1 -10 -7 -16z
m-762 8 c0 -3 -4 -8 -10 -11 -5 -3 -10 -1 -10 4 0 6 5 11 10 11 6 0 10 -2 10
-4z m640 -50 c0 -3 -4 -8 -10 -11 -5 -3 -10 -1 -10 4 0 6 5 11 10 11 6 0 10
-2 10 -4z m80 -6 c0 -5 -2 -10 -4 -10 -3 0 -8 5 -11 10 -3 6 -1 10 4 10 6 0
11 -4 11 -10z m-50 -35 c0 -8 -4 -15 -9 -15 -13 0 -22 16 -14 24 11 11 23 6
23 -9z m146 -7 c18 -20 18 -21 1 -15 -10 4 -23 7 -28 7 -5 0 -9 7 -9 15 0 21
14 19 36 -7z m-56 -3 c0 -9 9 -15 22 -15 15 0 19 -3 12 -10 -12 -12 -106 -1
-98 11 3 5 14 9 25 9 10 0 19 5 19 10 0 6 5 10 10 10 6 0 10 -7 10 -15z m-115
-55 c3 -5 -1 -10 -10 -10 -9 0 -13 5 -10 10 3 6 8 10 10 10 2 0 7 -4 10 -10z
m75 0 c0 -5 -9 -10 -20 -10 -11 0 -20 5 -20 10 0 6 9 10 20 10 11 0 20 -4 20
-10z m70 0 c0 -5 -4 -10 -10 -10 -5 0 -10 5 -10 10 0 6 5 10 10 10 6 0 10 -4
10 -10z m120 -24 c-14 -14 -24 0 -16 21 6 15 8 15 16 3 6 -9 5 -19 0 -24z
m-140 -26 c0 -5 -5 -10 -11 -10 -5 0 -7 5 -4 10 3 6 8 10 11 10 2 0 4 -4 4
-10z m174 -71 c-6 -10 -56 -5 -78 8 -18 10 -17 11 12 18 18 3 35 11 38 17 4 6
12 1 20 -13 7 -13 10 -27 8 -30z"/>
<path d="M7004 6250 c2 -22 0 -43 -5 -46 -13 -8 -11 -68 3 -99 9 -21 9 -28 -1
-34 -9 -6 -10 -11 -2 -15 14 -9 14 -46 0 -46 -8 0 -8 -4 -2 -12 6 -7 13 -23
15 -35 4 -16 2 -20 -10 -16 -10 5 -13 2 -8 -6 13 -21 35 -125 28 -131 -9 -6
-32 -48 -32 -56 0 -3 9 -4 20 -1 23 6 24 3 10 -24 -8 -13 -7 -25 0 -40 9 -16
8 -28 -3 -52 -8 -18 -15 -58 -15 -89 0 -31 -5 -64 -10 -74 -6 -11 -5 -25 3
-40 6 -12 10 -43 9 -68 -2 -25 2 -48 7 -52 6 -4 5 -11 -2 -21 -10 -11 -10 -16
0 -22 10 -6 9 -10 -3 -14 -9 -4 -16 -11 -16 -18 0 -6 7 -8 16 -5 12 5 15 2 9
-11 -15 -37 -17 -53 -6 -53 6 0 11 -7 11 -15 0 -8 -6 -15 -14 -15 -19 0 -26
-66 -26 -251 0 -95 4 -160 10 -164 7 -4 7 -12 0 -25 -6 -10 -10 -94 -10 -189
0 -159 1 -170 19 -176 12 -4 18 -12 14 -21 -4 -12 19 -14 155 -14 l161 0 0
169 c1 126 -2 171 -12 174 -9 4 -9 6 1 6 9 1 12 69 12 305 0 231 3 306 13 314
6 5 30 15 52 23 22 7 44 17 49 21 21 17 34 6 46 -39 7 -27 16 -52 20 -58 3 -5
7 -20 8 -32 0 -11 10 -52 21 -91 12 -38 21 -77 21 -86 0 -9 5 -16 10 -16 6 0
10 -15 10 -32 0 -18 7 -46 15 -62 8 -15 15 -35 15 -44 0 -9 10 -49 22 -89 15
-51 26 -72 36 -70 8 1 17 -4 19 -10 3 -7 -2 -13 -11 -13 -9 0 -16 -5 -16 -11
0 -6 9 -8 20 -4 14 5 20 2 20 -9 0 -9 -4 -16 -10 -16 -5 0 -10 -9 -10 -20 0
-24 68 -266 82 -292 8 -16 27 -18 180 -18 158 0 170 1 165 18 -8 25 -107 370
-120 420 -6 23 -17 42 -24 42 -7 0 -13 5 -13 10 0 6 4 10 9 10 18 0 -3 52 -25
62 -18 9 -21 14 -13 24 18 21 5 81 -74 351 -60 204 -60 203 12 258 60 46 126
184 89 185 -8 1 -6 6 5 14 20 16 24 91 5 100 -9 3 -8 8 5 16 18 11 18 13 1 31
-10 11 -12 19 -6 19 7 0 12 5 12 11 0 5 -5 7 -12 3 -6 -4 -27 -9 -45 -11 -29
-3 -34 -1 -31 14 3 14 13 18 46 18 39 0 42 2 42 28 0 15 -4 27 -10 27 -5 0
-10 -5 -10 -11 0 -5 -4 -8 -9 -5 -14 9 0 46 18 47 9 0 11 3 5 5 -6 3 -9 16 -6
29 3 20 0 25 -17 25 -17 0 -20 4 -15 24 4 16 1 25 -10 29 -14 6 -21 -4 -17
-26 2 -11 -50 -29 -66 -23 -7 3 -13 13 -13 21 0 9 4 14 9 10 5 -3 13 0 16 6 4
5 13 8 21 5 8 -3 14 1 14 10 0 9 9 18 20 21 19 5 20 7 5 23 -9 10 -28 21 -41
24 -17 5 -24 13 -22 25 4 25 -20 51 -48 51 -13 0 -27 7 -32 16 -16 28 -83 34
-424 34 l-338 0 4 -40z m200 -25 c3 -8 2 -15 -3 -15 -5 0 -14 7 -21 15 -10 12
-10 15 3 15 8 0 17 -7 21 -15z m65 -51 c2 -2 -17 -4 -42 -4 -26 0 -47 5 -47
10 0 9 78 4 89 -6z m621 -38 c0 -22 -29 -41 -42 -28 -9 9 -9 12 0 12 7 0 12 7
12 15 0 8 7 15 15 15 8 0 15 -6 15 -14z m-64 -33 c-10 -10 -19 5 -10 18 6 11
8 11 12 0 2 -7 1 -15 -2 -18z m-225 -102 c17 -21 19 -41 19 -176 l0 -153 -26
-17 c-21 -14 -24 -19 -13 -27 11 -8 11 -9 -2 -5 -9 3 -25 0 -35 -8 -34 -23
-197 -76 -207 -66 -5 5 -9 58 -9 117 0 72 -4 111 -11 116 -9 6 -9 10 1 17 11
6 13 34 10 115 -2 64 1 108 7 111 6 2 63 3 128 2 112 -2 120 -3 138 -26z
m-436 -30 c3 -5 2 -12 -2 -14 -13 -7 -73 4 -73 14 0 12 67 12 75 0z m57 -3
c-9 -9 -15 -9 -24 0 -9 9 -7 12 12 12 19 0 21 -3 12 -12z m-105 -34 c-3 -3
-12 -4 -19 -1 -8 3 -5 6 6 6 11 1 17 -2 13 -5z m778 -14 c3 -5 -3 -10 -14 -10
-12 0 -21 5 -21 10 0 6 6 10 14 10 8 0 18 -4 21 -10z m-651 -46 c4 -10 1 -14
-6 -12 -15 5 -23 28 -10 28 5 0 13 -7 16 -16z m-159 -14 c3 -5 -1 -10 -9 -10
-9 0 -16 5 -16 10 0 6 4 10 9 10 6 0 13 -4 16 -10z m42 4 c-3 -3 -12 -4 -19
-1 -8 3 -5 6 6 6 11 1 17 -2 13 -5z m43 -25 c0 -5 -8 -9 -17 -10 -12 0 -8 -4
10 -11 17 -6 27 -17 27 -29 0 -16 -6 -19 -34 -17 -29 2 -33 5 -30 24 3 16 -2
23 -17 27 -12 3 -19 10 -16 14 8 12 77 13 77 2z m58 -36 c-5 -24 -27 -28 -25
-4 1 12 7 21 15 21 7 0 12 -8 10 -17z m662 -13 c0 -5 -7 -10 -16 -10 -8 0 -12
5 -9 10 3 6 10 10 16 10 5 0 9 -4 9 -10z m-795 -10 c3 -5 -3 -10 -15 -10 -12
0 -18 5 -15 10 3 6 10 10 15 10 5 0 12 -4 15 -10z m162 -6 c-3 -3 -12 -4 -19
-1 -8 3 -5 6 6 6 11 1 17 -2 13 -5z m683 -14 c0 -5 -7 -10 -16 -10 -8 0 -12 5
-9 10 3 6 10 10 16 10 5 0 9 -4 9 -10z m-40 -26 c0 -17 -22 -14 -28 4 -2 7 3
12 12 12 9 0 16 -7 16 -16z m-765 -54 c3 -5 -1 -10 -10 -10 -9 0 -13 5 -10 10
3 6 8 10 10 10 2 0 7 -4 10 -10z m83 -15 c12 -12 -13 -24 -36 -19 -34 8 -36
10 -27 24 6 10 52 6 63 -5z m-93 -25 c3 -5 1 -10 -4 -10 -6 0 -11 5 -11 10 0
6 2 10 4 10 3 0 8 -4 11 -10z m135 0 c0 -5 -7 -10 -15 -10 -8 0 -15 5 -15 10
0 6 7 10 15 10 8 0 15 -4 15 -10z m11 -35 c0 -5 -9 -11 -21 -13 -20 -3 -27 8
-13 22 10 9 34 3 34 -9z m653 -10 c-4 -8 -10 -12 -15 -9 -14 8 -10 24 6 24 9
0 12 -6 9 -15z m-800 -39 c-9 -23 -33 -28 -27 -5 3 10 11 19 19 19 7 0 11 -6
8 -14z m36 -66 c0 -13 -28 -25 -38 -16 -3 4 0 11 8 16 20 13 30 12 30 0z m150
-30 c0 -5 -4 -10 -10 -10 -5 0 -10 5 -10 10 0 6 5 10 10 10 6 0 10 -4 10 -10z
m-250 -90 c0 -5 -4 -10 -10 -10 -5 0 -10 5 -10 10 0 6 5 10 10 10 6 0 10 -4
10 -10z m-20 -29 c0 -6 -4 -13 -10 -16 -5 -3 -10 1 -10 9 0 9 5 16 10 16 6 0
10 -4 10 -9z m610 -111 c0 -5 -4 -10 -10 -10 -5 0 -10 5 -10 10 0 6 5 10 10
10 6 0 10 -4 10 -10z m-30 -11 c0 -5 -4 -9 -9 -9 -5 0 -8 -7 -7 -16 2 -26 -21
-28 -27 -3 -3 13 -4 25 -2 29 6 10 45 9 45 -1z m-550 -29 c0 -5 -4 -10 -10
-10 -5 0 -10 5 -10 10 0 6 5 10 10 10 6 0 10 -4 10 -10z m620 -16 c0 -8 -4
-14 -10 -14 -5 0 -10 9 -10 21 0 11 5 17 10 14 6 -3 10 -13 10 -21z m-76 -23
c-10 -10 -22 -17 -26 -14 -11 6 14 32 31 33 11 0 9 -5 -5 -19z m162 -28 c-7
-7 -26 7 -26 19 0 6 6 6 15 -2 9 -7 13 -15 11 -17z m-166 -59 c0 -8 -4 -12
-10 -9 -5 3 -10 10 -10 16 0 5 5 9 10 9 6 0 10 -7 10 -16z m120 -58 c0 -2 -7
-7 -16 -10 -8 -3 -12 -2 -9 4 6 10 25 14 25 6z m-110 -36 c0 -5 -4 -10 -10
-10 -5 0 -10 5 -10 10 0 6 5 10 10 10 6 0 10 -4 10 -10z m130 0 c0 -11 -61
-29 -74 -22 -11 6 33 31 57 32 9 0 17 -4 17 -10z m-90 -14 c0 -3 -4 -8 -10
-11 -5 -3 -10 -1 -10 4 0 6 5 11 10 11 6 0 10 -2 10 -4z m40 -30 c0 -3 -4 -8
-10 -11 -5 -3 -10 -1 -10 4 0 6 5 11 10 11 6 0 10 -2 10 -4z m171 -59 c-16
-16 -26 0 -10 19 9 11 15 12 17 4 2 -6 -1 -17 -7 -23z m-141 -17 c0 -5 -4 -10
-10 -10 -5 0 -10 5 -10 10 0 6 5 10 10 10 6 0 10 -4 10 -10z m50 4 c0 -8 -27
-34 -36 -34 -3 0 -1 6 5 13 6 8 8 17 4 20 -3 4 1 7 10 7 10 0 17 -3 17 -6z
m50 -55 c0 -5 -7 -9 -15 -9 -15 0 -20 12 -9 23 8 8 24 -1 24 -14z m15 -38 c-8
-13 -35 -15 -35 -2 0 5 8 11 18 13 21 5 26 2 17 -11z m-775 -1 c0 -5 -2 -10
-4 -10 -3 0 -8 5 -11 10 -3 6 -1 10 4 10 6 0 11 -4 11 -10z m650 -44 c0 -3 -4
-8 -10 -11 -5 -3 -10 -1 -10 4 0 6 5 11 10 11 6 0 10 -2 10 -4z m80 0 c0 -3
-4 -8 -10 -11 -5 -3 -10 -1 -10 4 0 6 5 11 10 11 6 0 10 -2 10 -4z m60 -6 c0
-5 -4 -10 -10 -10 -5 0 -10 5 -10 10 0 6 5 10 10 10 6 0 10 -4 10 -10z m-112
-32 c-6 -18 -28 -21 -28 -4 0 9 7 16 16 16 9 0 14 -5 12 -12z m119 -45 c-8 -8
-97 9 -97 18 0 5 9 9 20 9 11 0 23 6 26 14 4 10 11 8 30 -11 14 -14 23 -27 21
-30z m21 45 c19 -19 14 -26 -13 -20 -14 2 -25 11 -25 18 0 17 22 18 38 2z
m-141 -34 c-3 -3 -12 -4 -19 -1 -8 3 -5 6 6 6 11 1 17 -2 13 -5z m47 -33 c7
-11 -22 -36 -31 -27 -3 3 0 6 7 6 9 0 7 5 -6 15 -19 14 -19 14 3 15 12 0 24
-4 27 -9z m76 -1 c0 -5 -4 -10 -10 -10 -5 0 -10 5 -10 10 0 6 5 10 10 10 6 0
10 -4 10 -10z m120 -10 c0 -11 -7 -20 -15 -20 -18 0 -19 12 -3 28 16 16 18 15
18 -8z m-260 6 c0 -11 -19 -15 -25 -6 -3 5 1 10 9 10 9 0 16 -2 16 -4z m200
-16 c0 -5 -2 -10 -4 -10 -3 0 -8 5 -11 10 -3 6 -1 10 4 10 6 0 11 -4 11 -10z
m-85 -30 c3 -5 1 -10 -4 -10 -6 0 -11 5 -11 10 0 6 2 10 4 10 3 0 8 -4 11 -10z
m175 -66 c0 -13 -44 -12 -73 1 -15 6 -13 10 15 24 29 14 34 15 45 1 7 -8 13
-20 13 -26z"/>
<path d="M8272 6107 c33 -95 69 -200 79 -234 14 -43 28 -68 47 -81 27 -18 62
-19 62 -1 0 5 9 9 20 9 23 0 27 -18 6 -26 -8 -3 -14 -11 -12 -17 1 -7 1 -9 -1
-5 -3 5 -16 5 -29 2 -18 -5 -29 -1 -39 12 -8 11 -15 14 -15 7 0 -23 12 -43 27
-43 11 0 13 -4 5 -12 -7 -9 3 -50 36 -140 25 -70 48 -127 51 -126 18 2 22 -3
13 -15 -8 -10 -2 -34 24 -92 l34 -80 0 -476 c0 -428 1 -477 16 -483 8 -3 76
-6 150 -6 117 0 135 2 141 17 4 9 1 19 -5 21 -18 6 -15 22 4 22 14 0 16 25 13
228 -1 125 -6 238 -11 251 -5 13 -5 29 0 35 11 14 14 74 5 89 -11 18 -11 47 0
47 5 0 6 8 2 17 -3 10 -6 64 -6 120 0 75 6 116 20 155 11 29 40 112 66 183 26
72 51 140 57 152 6 11 7 26 4 32 -4 6 -3 11 2 11 10 0 72 157 72 183 0 21 -33
23 -50 2 -7 -8 -17 -15 -22 -15 -6 0 -5 7 2 15 10 13 9 15 -9 15 -23 0 -29 25
-8 33 7 3 1 9 -13 15 -29 11 -56 39 -47 48 3 4 22 -4 42 -16 30 -19 39 -20 46
-9 6 11 11 11 21 1 6 -6 21 -12 33 -12 17 0 18 2 5 11 -12 8 -10 9 7 4 18 -5
25 -1 34 22 7 15 20 47 30 69 10 23 21 55 25 70 4 16 10 34 14 39 8 11 40 104
40 117 0 4 -66 8 -146 8 -94 0 -143 -4 -139 -10 3 -5 2 -10 -4 -10 -5 0 -11 5
-13 12 -3 7 -19 -23 -37 -66 -18 -43 -30 -84 -27 -92 3 -8 -4 -24 -15 -35 -16
-16 -19 -28 -15 -54 5 -25 3 -34 -9 -39 -9 -3 -13 -10 -10 -16 3 -6 -1 -17 -9
-26 -9 -8 -16 -20 -16 -25 0 -14 28 -11 33 4 4 9 7 9 18 -1 11 -10 9 -15 -9
-28 -12 -8 -20 -19 -17 -24 3 -5 1 -11 -5 -15 -5 -3 -10 0 -10 8 0 8 -7 17
-15 21 -11 4 -15 -1 -15 -19 0 -13 -7 -36 -15 -52 -8 -15 -22 -46 -31 -68 -14
-37 -16 -39 -29 -22 -7 11 -27 60 -44 110 -65 193 -79 235 -121 340 l-42 108
-153 -2 -152 -1 59 -171z m223 153 c-28 -12 -45 -12 -45 0 0 6 15 10 33 9 27
0 29 -2 12 -9z m625 0 c0 -5 -2 -10 -4 -10 -3 0 -8 5 -11 10 -3 6 -1 10 4 10
6 0 11 -4 11 -10z m25 -90 c3 -5 1 -10 -4 -10 -6 0 -11 5 -11 10 0 6 2 10 4
10 3 0 8 -4 11 -10z m-65 -25 c0 -19 -11 -19 -36 0 -18 14 -18 14 9 15 17 0
27 -5 27 -15z m40 -5 c0 -5 -4 -10 -10 -10 -5 0 -10 5 -10 10 0 6 5 10 10 10
6 0 10 -4 10 -10z m-595 -20 c-3 -5 -10 -10 -16 -10 -5 0 -9 5 -9 10 0 6 7 10
16 10 8 0 12 -4 9 -10z m37 -56 c-8 -6 -26 -8 -41 -5 -20 4 -22 6 -8 9 11 2
16 9 13 18 -7 19 4 18 21 -3 13 -16 14 -16 10 -1 -8 22 6 33 14 11 3 -11 0
-22 -9 -29z m464 21 c-3 -8 -1 -15 4 -15 5 0 7 -7 4 -15 -5 -11 0 -14 17 -13
19 2 25 -2 27 -22 2 -15 0 -20 -5 -13 -4 6 -21 13 -37 15 -23 2 -30 8 -31 28
-3 31 4 50 17 50 6 0 8 -7 4 -15z m-616 -46 c0 -11 -4 -17 -10 -14 -5 3 -10
13 -10 21 0 8 5 14 10 14 6 0 10 -9 10 -21z m481 -2 c-1 -12 -15 -9 -19 4 -3
6 1 10 8 8 6 -3 11 -8 11 -12z m-283 -117 c7 -21 -20 -6 -37 21 l-16 24 24
-16 c14 -9 27 -22 29 -29z m-188 -10 c0 -5 -4 -10 -10 -10 -5 0 -10 5 -10 10
0 6 5 10 10 10 6 0 10 -4 10 -10z m215 0 c3 -5 1 -10 -4 -10 -6 0 -11 5 -11
10 0 6 2 10 4 10 3 0 8 -4 11 -10z m275 -30 c0 -5 -4 -10 -10 -10 -5 0 -10 5
-10 10 0 6 5 10 10 10 6 0 10 -4 10 -10z m-260 -21 c0 -5 -4 -9 -10 -9 -5 0
-10 7 -10 16 0 8 5 12 10 9 6 -3 10 -10 10 -16z m-198 2 c-8 -5 -15 -20 -15
-35 -1 -14 -7 -26 -12 -26 -9 0 -12 30 -6 63 0 4 11 7 24 7 16 0 18 -3 9 -9z
m483 -32 c-8 -12 -35 -12 -35 0 0 11 22 20 33 14 4 -2 5 -9 2 -14z m-275 -28
c0 -6 -4 -13 -10 -16 -5 -3 -10 1 -10 9 0 9 5 16 10 16 6 0 10 -4 10 -9z m155
-1 c3 -5 1 -10 -4 -10 -6 0 -11 5 -11 10 0 6 2 10 4 10 3 0 8 -4 11 -10z
m-185 -70 c0 -5 -4 -10 -9 -10 -6 0 -13 5 -16 10 -3 6 1 10 9 10 9 0 16 -4 16
-10z m365 0 c3 -5 1 -10 -4 -10 -6 0 -11 5 -11 10 0 6 2 10 4 10 3 0 8 -4 11
-10z m-285 -30 c0 -5 -4 -10 -10 -10 -5 0 -10 5 -10 10 0 6 5 10 10 10 6 0 10
-4 10 -10z m147 -246 c-9 -9 -28 6 -21 18 4 6 10 6 17 -1 6 -6 8 -13 4 -17z
m-257 -24 c0 -5 -4 -10 -10 -10 -5 0 -10 5 -10 10 0 6 5 10 10 10 6 0 10 -4
10 -10z m138 -27 c1 -27 1 -27 -13 -9 -18 24 -19 36 -2 36 7 0 14 -12 15 -27z
m127 17 c3 -5 1 -10 -4 -10 -6 0 -11 5 -11 10 0 6 2 10 4 10 3 0 8 -4 11 -10z
m-85 -30 c0 -5 -4 -10 -10 -10 -5 0 -10 5 -10 10 0 6 5 10 10 10 6 0 10 -4 10
-10z m-80 -250 c0 -5 -2 -10 -4 -10 -3 0 -8 5 -11 10 -3 6 -1 10 4 10 6 0 11
-4 11 -10z m165 -330 c3 -5 1 -10 -4 -10 -6 0 -11 5 -11 10 0 6 2 10 4 10 3 0
8 -4 11 -10z m5 -430 c0 -5 -4 -10 -10 -10 -5 0 -10 5 -10 10 0 6 5 10 10 10
6 0 10 -4 10 -10z m-50 -7 c-1 -11 -30 -48 -31 -40 -1 4 -2 12 -3 17 0 6 -8
15 -16 20 -11 7 -7 10 18 10 17 0 32 -3 32 -7z"/>
<path d="M4773 6258 c-27 -13 -37 -36 -22 -54 8 -10 8 -14 1 -14 -6 0 -9 -7
-5 -16 4 -10 0 -20 -10 -26 -20 -10 -23 -54 -5 -60 15 -5 14 -76 0 -90 -7 -7
-6 -15 4 -25 18 -19 18 -33 -1 -33 -19 0 -19 -9 0 -34 8 -10 12 -22 10 -27 -3
-4 -1 -10 5 -14 14 -8 13 -25 -1 -25 -12 0 -38 -29 -39 -42 0 -13 21 -9 36 7
18 17 34 20 34 5 0 -5 -5 -10 -11 -10 -6 0 -8 -9 -4 -20 5 -14 2 -20 -9 -20
-9 0 -16 -4 -16 -10 0 -5 7 -10 15 -10 23 0 18 -36 -7 -48 -13 -6 -17 -11 -10
-11 7 -1 10 -6 7 -11 -5 -8 -11 -8 -19 -1 -10 9 -12 -10 -11 -89 2 -55 7 -106
13 -113 7 -8 7 -18 2 -27 -15 -23 -12 -34 5 -20 11 9 14 22 9 43 -5 22 -3 28
7 25 15 -5 21 -66 7 -74 -4 -3 -8 -16 -8 -29 0 -13 -4 -27 -10 -30 -18 -11
-10 -25 15 -25 27 0 36 -19 10 -21 -8 -1 -19 -3 -25 -4 -5 -1 -13 -3 -17 -4
-5 -1 0 -8 11 -16 19 -15 14 -35 -10 -35 -22 0 -16 -27 11 -48 14 -11 25 -28
25 -38 0 -17 -1 -17 -13 1 -8 10 -19 15 -26 11 -9 -6 -8 -12 4 -25 8 -10 14
-29 13 -42 -3 -20 1 -23 20 -21 30 4 28 -14 -2 -22 -27 -7 -41 -35 -31 -66 6
-20 45 -29 45 -10 0 6 5 10 11 10 8 0 9 -4 0 -13 -6 -8 -8 -17 -4 -20 3 -4 -2
-7 -12 -7 -13 0 -15 -3 -7 -13 6 -7 9 -23 6 -34 -5 -19 -1 -22 33 -25 31 -2
39 -7 41 -25 4 -28 -14 -30 -23 -3 -8 24 -28 26 -45 5 -17 -21 -6 -30 13 -11
16 16 27 11 27 -12 0 -8 9 -23 21 -33 11 -10 18 -23 14 -28 -3 -6 -2 -11 4
-11 5 0 11 6 14 13 3 9 8 9 18 -2 11 -10 11 -15 2 -18 -19 -7 -16 -23 5 -23
16 -1 16 -1 0 -14 -10 -7 -17 -15 -15 -17 1 -2 -3 1 -9 8 -8 9 -14 9 -22 1 -6
-6 -15 -8 -19 -4 -5 4 0 13 9 20 10 7 15 16 11 19 -10 11 -25 8 -18 -3 3 -5
-12 -14 -34 -21 -28 -8 -40 -18 -44 -35 -4 -22 15 -40 33 -29 13 8 111 -25
105 -35 -4 -6 -16 -10 -27 -10 -11 0 -26 -8 -33 -17 -12 -16 -14 -16 -29 0
-10 9 -14 21 -11 27 3 5 2 10 -4 10 -15 0 -23 -18 -11 -25 7 -4 8 -19 5 -36
-4 -19 -3 -29 5 -29 10 0 10 -3 1 -14 -7 -8 -8 -16 -3 -18 5 -1 12 -15 16 -30
6 -25 4 -28 -21 -28 -25 -1 -26 -2 -10 -14 9 -7 17 -23 17 -34 0 -11 10 -28
22 -36 l22 -15 -27 -21 c-15 -12 -27 -26 -27 -31 0 -6 141 -8 363 -7 l362 3 0
155 0 155 -192 0 c-107 0 -193 -4 -192 -9 0 -5 -3 -12 -8 -15 -14 -11 -38 -45
-26 -38 6 4 14 3 18 -3 8 -13 -8 -13 -39 1 -14 7 -22 17 -19 25 6 16 -13 19
-22 4 -9 -15 -25 -2 -25 20 0 11 -12 24 -30 31 -16 8 -31 20 -32 29 -4 18 45
42 69 33 11 -4 14 -3 9 6 -5 7 0 18 10 27 18 14 18 15 -4 9 -14 -4 -31 0 -47
14 -27 21 -19 37 14 26 11 -3 22 -1 26 5 3 5 1 10 -4 10 -16 0 -13 29 4 47 10
9 14 27 12 48 -4 28 0 34 20 40 20 5 22 9 13 25 -6 11 -17 20 -24 20 -21 0
-14 34 9 45 24 13 32 60 13 82 -10 13 -10 17 0 20 8 3 12 34 12 108 0 74 -4
105 -12 108 -10 3 -10 7 -2 18 12 14 17 135 8 151 -3 5 -13 3 -21 -4 -13 -10
-15 -9 -12 7 6 29 33 29 49 0 l14 -25 210 2 211 3 0 105 0 105 -212 3 c-167 2
-213 0 -213 -10 0 -7 -6 -4 -12 7 -8 13 -12 56 -10 118 1 57 -2 97 -8 97 -6 0
-5 10 2 25 l11 25 216 2 216 3 0 150 0 150 -350 2 c-231 1 -357 -2 -372 -9z
m357 -48 c0 -5 -7 -10 -16 -10 -8 0 -12 5 -9 10 3 6 10 10 16 10 5 0 9 -4 9
-10z m-220 -71 c0 -5 -7 -9 -15 -9 -9 0 -15 9 -15 21 0 18 2 19 15 9 8 -7 15
-16 15 -21z m-90 -59 c0 -5 -7 -10 -15 -10 -8 0 -15 5 -15 10 0 6 7 10 15 10
8 0 15 -4 15 -10z m-8 -32 c-17 -17 -15 -33 2 -19 21 17 30 -4 10 -24 -18 -17
-40 -16 -38 3 1 7 2 21 3 32 0 12 8 20 18 20 13 0 14 -3 5 -12z m563 2 c3 -5
1 -10 -4 -10 -6 0 -11 5 -11 10 0 6 2 10 4 10 3 0 8 -4 11 -10z m-576 -146 c6
-15 9 -29 6 -32 -3 -3 -5 0 -5 6 0 7 -6 12 -14 12 -18 0 -29 16 -21 30 10 17
21 11 34 -16z m47 -22 c-4 -3 -11 0 -16 8 -15 24 -11 33 6 15 9 -9 13 -19 10
-23z m-66 -18 c0 -8 -4 -12 -10 -9 -5 3 -10 10 -10 16 0 5 5 9 10 9 6 0 10 -7
10 -16z m110 1 c0 -8 -5 -15 -11 -15 -5 0 -8 -4 -5 -9 4 -5 -3 -7 -14 -4 -22
6 -27 29 -7 36 23 10 37 7 37 -8z m120 7 c0 -13 -12 -22 -22 -16 -10 6 -1 24
13 24 5 0 9 -4 9 -8z m-200 -22 c0 -5 -4 -10 -10 -10 -5 0 -10 5 -10 10 0 6 5
10 10 10 6 0 10 -4 10 -10z m120 -20 c0 -5 -7 -10 -16 -10 -8 0 -12 5 -9 10 3
6 10 10 16 10 5 0 9 -4 9 -10z m80 -14 c0 -3 -4 -8 -10 -11 -5 -3 -10 -1 -10
4 0 6 5 11 10 11 6 0 10 -2 10 -4z m20 -56 c0 -31 -4 -33 -31 -22 -12 5 -14
13 -8 30 13 33 39 28 39 -8z m-105 -50 c-3 -5 -10 -10 -16 -10 -5 0 -9 5 -9
10 0 6 7 10 16 10 8 0 12 -4 9 -10z m105 -10 c0 -5 -4 -10 -10 -10 -5 0 -10 5
-10 10 0 6 5 10 10 10 6 0 10 -4 10 -10z m-12 -32 c15 -15 16 -31 0 -22 -7 5
-8 3 -3 -6 6 -10 11 -9 21 5 18 24 32 10 16 -15 -16 -25 -15 -28 5 -32 16 -3
16 -4 0 -20 -9 -9 -17 -23 -18 -30 0 -7 -5 1 -10 18 -5 18 -16 34 -24 38 -8 3
-14 1 -12 -3 1 -5 -1 -9 -5 -10 -23 -3 -28 1 -28 19 0 11 5 20 11 20 5 0 8 4
5 9 -9 13 4 41 18 41 7 0 17 -5 24 -12z m-198 -12 c0 -3 -4 -8 -10 -11 -5 -3
-10 -1 -10 4 0 6 5 11 10 11 6 0 10 -2 10 -4z m108 -26 c3 -9 -2 -11 -19 -7
-13 4 -33 7 -44 7 -19 1 -19 1 -2 15 21 15 58 7 65 -15z m172 3 c-1 -20 -16
-31 -30 -22 -13 8 -13 10 0 19 18 12 30 13 30 3z m-160 -43 c0 -5 -4 -10 -10
-10 -5 0 -10 5 -10 10 0 6 5 10 10 10 6 0 10 -4 10 -10z m46 -47 c-7 -7 -26 7
-26 19 0 6 6 6 15 -2 9 -7 13 -15 11 -17z m-102 -9 c3 -8 2 -12 -4 -9 -6 3
-10 10 -10 16 0 14 7 11 14 -7z m-90 -39 c3 -9 0 -15 -9 -15 -8 0 -15 7 -15
15 0 8 4 15 9 15 5 0 11 -7 15 -15z m76 -45 c0 -5 -5 -10 -11 -10 -5 0 -7 5
-4 10 3 6 8 10 11 10 2 0 4 -4 4 -10z m70 -30 c0 -5 -2 -10 -4 -10 -3 0 -8 5
-11 10 -3 6 -1 10 4 10 6 0 11 -4 11 -10z m-80 -43 c0 -14 -27 -37 -44 -37 -9
0 -16 7 -16 16 0 10 6 14 14 11 10 -4 13 -1 9 9 -3 7 -2 22 2 32 6 16 7 16 21
-2 8 -11 14 -24 14 -29z m-80 23 c0 -5 -5 -10 -11 -10 -5 0 -7 5 -4 10 3 6 8
10 11 10 2 0 4 -4 4 -10z m135 0 c3 -5 1 -10 -4 -10 -6 0 -11 5 -11 10 0 6 2
10 4 10 3 0 8 -4 11 -10z m75 6 c0 -3 -4 -8 -10 -11 -5 -3 -10 -1 -10 4 0 6 5
11 10 11 6 0 10 -2 10 -4z m30 -20 c0 -17 -14 -29 -23 -20 -8 8 3 34 14 34 5
0 9 -6 9 -14z m-109 -29 c-1 -12 -15 -9 -19 4 -3 6 1 10 8 8 6 -3 11 -8 11
-12z m99 -37 c0 -5 -4 -10 -10 -10 -5 0 -10 5 -10 10 0 6 5 10 10 10 6 0 10
-4 10 -10z m-252 -98 c2 -7 -3 -12 -12 -12 -9 0 -16 7 -16 16 0 17 22 14 28
-4z m112 -12 c0 -5 -5 -10 -11 -10 -5 0 -7 5 -4 10 3 6 8 10 11 10 2 0 4 -4 4
-10z m-65 -60 c-3 -5 -10 -10 -16 -10 -5 0 -9 5 -9 10 0 6 7 10 16 10 8 0 12
-4 9 -10z m71 -77 c-10 -10 -19 5 -10 18 6 11 8 11 12 0 2 -7 1 -15 -2 -18z
m94 -53 c0 -5 -7 -10 -15 -10 -8 0 -15 5 -15 10 0 6 7 10 15 10 8 0 15 -4 15
-10z m-8 -42 c-7 -7 -12 -8 -12 -2 0 6 3 14 7 17 3 4 9 5 12 2 2 -3 -1 -11 -7
-17z m-102 -9 c0 -5 5 -7 10 -4 6 3 10 2 10 -3 0 -12 -59 -37 -67 -28 -3 3 -1
6 6 6 8 0 10 7 6 20 -5 16 -2 20 14 20 12 0 21 -5 21 -11z m15 -49 c3 -5 1
-10 -4 -10 -6 0 -11 5 -11 10 0 6 2 10 4 10 3 0 8 -4 11 -10z m100 -70 c3 -5
1 -10 -4 -10 -6 0 -11 5 -11 10 0 6 2 10 4 10 3 0 8 -4 11 -10z m-15 -110 c0
-5 -2 -10 -4 -10 -3 0 -8 5 -11 10 -3 6 -1 10 4 10 6 0 11 -4 11 -10z m-78
-63 c11 -18 0 -21 -19 -5 -10 9 -25 18 -33 22 -8 3 -2 3 15 0 16 -3 33 -11 37
-17z m64 -112 c-3 -10 1 -18 11 -22 9 -4 19 -1 21 5 5 17 39 15 46 -3 3 -8 14
-15 24 -15 23 0 72 -37 72 -53 0 -7 -7 -4 -14 6 -19 24 -46 22 -46 -4 0 -19
-2 -20 -17 -8 -11 10 -14 10 -9 2 8 -15 -21 -18 -43 -4 -11 7 -10 10 4 18 16
9 15 11 -7 15 -21 4 -24 1 -20 -19 2 -13 -1 -23 -7 -23 -6 0 -11 8 -11 18 0
10 -6 26 -13 36 -15 20 -11 66 5 66 6 0 7 -7 4 -15z m-122 -16 c-6 -11 -24 -2
-24 11 0 5 7 7 15 4 8 -4 12 -10 9 -15z m571 -19 c10 0 11 -5 2 -25 -7 -14
-15 -25 -19 -25 -12 0 -21 48 -13 67 8 17 8 17 12 1 3 -10 10 -18 18 -18z m37
8 c-7 -7 -12 -8 -12 -2 0 14 12 26 19 19 2 -3 -1 -11 -7 -17z m-532 3 c0 -16
-19 -23 -40 -16 -30 10 -24 25 10 25 17 0 30 -4 30 -9z m400 -19 c0 -5 -8 -17
-19 -26 -18 -16 -18 -16 -14 9 5 22 33 37 33 17z m-480 -12 c0 -5 -4 -10 -10
-10 -5 0 -10 5 -10 10 0 6 5 10 10 10 6 0 10 -4 10 -10z m430 -20 c0 -5 -4
-10 -10 -10 -5 0 -10 5 -10 10 0 6 5 10 10 10 6 0 10 -4 10 -10z m-300 -40
c12 -8 11 -10 -7 -10 -13 0 -23 5 -23 10 0 13 11 13 30 0z m144 -15 c11 -8 17
-17 14 -20 -6 -6 -69 14 -82 26 -17 15 48 9 68 -6z m145 -26 c-20 -12 -22 -4
-8 23 12 21 13 21 17 4 2 -10 -2 -22 -9 -27z m-269 10 c0 -4 -7 -9 -15 -13 -8
-3 -15 -16 -16 -28 0 -21 -1 -22 -8 -3 -11 29 -3 51 20 51 10 0 19 -3 19 -7z
m370 1 c0 -5 -7 -10 -15 -10 -8 0 -15 5 -15 10 0 6 7 10 15 10 8 0 15 -4 15
-10z m-300 -20 c0 -5 -9 -10 -19 -10 -11 0 -23 5 -26 10 -4 6 5 10 19 10 14 0
26 -4 26 -10z m-162 -12 c18 -18 14 -28 -11 -28 -31 0 -39 9 -24 26 15 17 20
17 35 2z m158 -30 c4 -6 2 -14 -4 -16 -6 -2 -8 -10 -5 -18 3 -8 -1 -14 -10
-14 -23 0 -29 17 -15 40 15 23 24 25 34 8z"/>
<path d="M3738 6254 c-3 -3 -41 -7 -84 -9 -44 -2 -82 -4 -86 -4 -5 -1 -8 -26
-8 -56 0 -39 4 -55 13 -55 16 0 47 -32 47 -48 0 -6 -14 -19 -31 -27 -26 -14
-28 -19 -18 -31 10 -13 10 -17 -2 -25 -11 -7 -9 -9 9 -9 12 0 22 -4 22 -10 0
-5 -9 -10 -20 -10 -19 0 -20 -7 -20 -140 0 -136 1 -140 24 -155 13 -8 31 -13
40 -9 9 3 16 1 16 -5 0 -10 -10 -13 -55 -15 -20 -1 -20 -9 -22 -371 -1 -257 2
-374 10 -383 6 -8 7 -16 1 -20 -5 -4 -9 -16 -9 -27 0 -14 6 -19 20 -17 11 2
24 8 29 13 16 15 33 10 39 -11 3 -11 11 -20 18 -20 10 0 10 3 1 12 -18 18 -15
39 6 36 11 -2 18 4 20 20 4 26 5 26 49 10 33 -12 41 -36 9 -30 -10 2 -16 -4
-16 -16 0 -20 37 -42 70 -42 56 0 14 -43 -52 -54 -29 -5 -38 -12 -38 -26 0
-14 -7 -20 -21 -20 -11 0 -17 4 -14 10 3 5 0 7 -8 4 -8 -3 -17 2 -20 11 -5 12
-1 14 21 9 l27 -7 -22 22 c-12 11 -31 21 -42 21 -11 0 -21 6 -23 12 -4 10 -10
10 -31 1 -29 -13 -37 -43 -13 -43 20 0 62 -40 70 -67 6 -19 4 -23 -15 -23 -18
0 -20 3 -11 12 9 9 6 14 -11 23 -28 15 -47 2 -47 -32 0 -21 3 -23 14 -14 12
10 14 7 11 -16 -1 -15 -8 -29 -14 -31 -7 -2 -11 -30 -11 -71 0 -63 2 -69 26
-80 30 -13 27 -35 -4 -39 -19 -3 -22 -10 -22 -46 0 -23 5 -47 12 -54 17 -17
127 -15 161 2 15 9 27 10 27 5 0 -6 8 -8 18 -5 9 3 33 1 52 -4 24 -7 36 -6 41
2 4 7 23 9 48 5 43 -5 47 -2 31 23 -8 13 -10 13 -10 1 0 -10 -3 -12 -10 -5 -5
5 -7 19 -4 30 4 15 14 21 37 22 32 1 32 1 29 -38 -4 -34 -2 -39 13 -34 20 8
37 48 29 69 -8 21 16 18 44 -4 21 -19 32 -48 12 -36 -5 3 -10 2 -10 -3 0 -15
39 -22 136 -22 82 0 94 2 136 29 57 36 122 103 145 150 26 52 26 451 0 525
-17 46 -15 106 3 131 27 37 16 155 -21 227 -11 22 -42 62 -70 91 l-50 52 22
15 c74 48 105 91 121 165 14 64 15 78 7 113 -4 19 -3 32 3 32 6 0 7 38 3 98
-6 81 -11 103 -33 136 -14 21 -36 42 -49 47 -13 5 -23 13 -23 19 0 5 -6 10
-14 10 -8 0 -17 8 -20 17 -5 12 -9 14 -18 5 -19 -19 -30 -14 -23 8 6 18 3 20
-18 14 -30 -7 -60 7 -63 30 -3 19 36 22 53 5 7 -7 13 -7 17 -1 6 11 -69 33
-106 31 -23 -1 -23 -1 2 -9 14 -4 20 -8 13 -9 -7 -1 -10 -8 -7 -16 4 -10 0
-15 -10 -15 -9 0 -19 6 -22 14 -3 8 -20 13 -44 13 -22 0 -46 5 -53 12 -16 13
-27 5 -27 -21 0 -10 -7 -18 -16 -18 -12 0 -15 6 -10 26 7 25 6 26 -41 22 -26
-1 -51 -7 -55 -13 -5 -6 -8 -5 -8 3 0 9 -26 12 -98 12 -54 0 -101 -3 -104 -6z
m48 -39 c1 -14 -2 -25 -7 -25 -5 0 -9 4 -9 9 0 5 -3 16 -6 25 -4 10 -1 16 7
16 8 0 15 -11 15 -25z m464 -25 c0 -5 -4 -10 -10 -10 -5 0 -10 5 -10 10 0 6 5
10 10 10 6 0 10 -4 10 -10z m-90 -40 c0 -5 -4 -10 -10 -10 -5 0 -10 5 -10 10
0 6 5 10 10 10 6 0 10 -4 10 -10z m-433 -66 c-3 -3 -12 -4 -19 -1 -8 3 -5 6 6
6 11 1 17 -2 13 -5z m253 -14 c0 -5 -4 -10 -10 -10 -5 0 -10 5 -10 10 0 6 5
10 10 10 6 0 10 -4 10 -10z m310 -17 c0 -5 4 -14 9 -22 8 -12 12 -13 25 -1 9
7 20 10 24 6 4 -4 -4 -16 -17 -27 -27 -22 -30 -22 -51 -9 -12 8 -13 11 -1 19
9 6 10 11 2 15 -6 4 -11 11 -11 17 0 11 20 13 20 2z m-200 -38 c-7 -9 -15 -13
-17 -11 -7 7 7 26 19 26 6 0 6 -6 -2 -15z m-386 -4 c3 -5 0 -11 -8 -14 -15 -6
-26 1 -26 15 0 11 27 10 34 -1z m457 -25 c-8 -9 -5 -23 9 -51 11 -22 20 -45
20 -53 0 -7 7 -20 15 -28 8 -9 15 -32 15 -52 0 -20 5 -54 11 -75 10 -36 9 -39
-32 -77 -22 -22 -48 -42 -58 -43 -9 -1 -22 -6 -28 -10 -7 -5 -13 -5 -13 0 0
12 -90 7 -149 -8 -44 -11 -54 -11 -61 0 -6 11 -23 12 -66 8 -58 -6 -100 5 -88
24 3 6 27 10 53 9 25 -1 58 -1 73 -1 l28 1 2 178 3 177 122 5 c80 3 126 9 135
18 16 16 24 -3 9 -22z m-436 -6 c-3 -5 -10 -10 -16 -10 -5 0 -9 5 -9 10 0 6 7
10 16 10 8 0 12 -4 9 -10z m527 -15 c0 -5 -5 -11 -11 -13 -6 -2 -11 4 -11 13
0 9 5 15 11 13 6 -2 11 -8 11 -13z m-37 -5 c-3 -5 -13 -10 -21 -10 -8 0 -14 5
-14 10 0 6 9 10 21 10 11 0 17 -4 14 -10z m-509 -76 c-4 -12 -10 -14 -17 -7
-5 5 -7 17 -3 27 4 12 10 14 17 7 5 -5 7 -17 3 -27z m84 -19 c0 -8 -9 -15 -20
-15 -25 0 -26 17 -2 23 9 3 18 5 20 6 1 0 2 -6 2 -14z m-60 -5 c0 -5 -5 -10
-11 -10 -5 0 -7 5 -4 10 3 6 8 10 11 10 2 0 4 -4 4 -10z m-70 -10 c0 -5 -5
-10 -11 -10 -5 0 -7 5 -4 10 3 6 8 10 11 10 2 0 4 -4 4 -10z m797 -26 c-3 -3
-12 -4 -19 -1 -8 3 -5 6 6 6 11 1 17 -2 13 -5z m-687 -54 c0 -5 -4 -10 -9 -10
-6 0 -13 5 -16 10 -3 6 1 10 9 10 9 0 16 -4 16 -10z m-100 -10 c0 -5 -4 -10
-10 -10 -5 0 -10 5 -10 10 0 6 5 10 10 10 6 0 10 -4 10 -10z m-50 -10 c0 -5
-5 -10 -11 -10 -5 0 -7 5 -4 10 3 6 8 10 11 10 2 0 4 -4 4 -10z m0 -39 c0 -5
-6 -14 -14 -20 -12 -10 -13 -8 -9 8 5 21 23 30 23 12z m-35 -91 c3 -5 1 -10
-4 -10 -6 0 -11 5 -11 10 0 6 2 10 4 10 3 0 8 -4 11 -10z m849 -11 c-3 -5 -10
-7 -15 -3 -5 3 -7 10 -3 15 3 5 10 7 15 3 5 -3 7 -10 3 -15z m-794 1 c0 -5 -7
-10 -15 -10 -8 0 -15 5 -15 10 0 6 7 10 15 10 8 0 15 -4 15 -10z m575 -70 c3
-5 -1 -10 -9 -10 -9 0 -16 5 -16 10 0 6 4 10 9 10 6 0 13 -4 16 -10z m-75 -42
c0 -10 7 -18 15 -18 8 0 15 -4 15 -10 0 -5 7 -7 15 -4 10 4 15 0 15 -15 0 -12
-4 -21 -10 -21 -5 0 -10 -4 -10 -10 0 -5 6 -10 14 -10 18 0 29 -17 21 -30 -5
-8 -12 -7 -23 2 -14 12 -15 9 -8 -22 4 -19 4 -185 0 -369 -9 -415 4 -385 -170
-386 l-119 0 0 370 0 369 54 16 c30 8 57 22 59 29 4 11 6 11 12 0 7 -10 14 -9
34 4 17 11 38 15 62 12 l37 -4 -19 21 c-14 16 -16 22 -6 25 11 4 11 8 -1 22
-25 29 -28 50 -6 48 11 -1 19 -9 19 -19z m80 14 c0 -4 -17 -9 -37 -10 -30 -1
-34 1 -18 8 26 11 55 12 55 2z m-230 -21 c0 -5 -9 -7 -20 -4 -11 3 -20 7 -20
9 0 2 9 4 20 4 11 0 20 -4 20 -9z m95 -8 c2 -7 0 -13 -6 -13 -5 0 -14 -11 -19
-25 -7 -18 -17 -25 -35 -25 -28 0 -35 24 -9 34 10 4 13 13 9 26 -5 16 -2 19
24 17 17 -1 33 -8 36 -14z m231 1 c13 -10 15 -17 7 -20 -7 -3 -9 -12 -6 -21 4
-11 2 -14 -8 -11 -8 3 -14 12 -14 20 0 8 -6 23 -14 32 -11 13 -11 16 1 16 8 0
23 -7 34 -16z m-356 -14 c0 -5 -4 -10 -10 -10 -5 0 -10 5 -10 10 0 6 5 10 10
10 6 0 10 -4 10 -10z m300 6 c0 -9 -30 -14 -35 -6 -4 6 3 10 14 10 12 0 21 -2
21 -4z m-379 -29 c-13 -13 -26 -3 -16 12 3 6 11 8 17 5 6 -4 6 -10 -1 -17z
m109 -15 c0 -15 -2 -15 -10 -2 -13 20 -13 33 0 25 6 -3 10 -14 10 -23z m-25
-12 c3 -5 1 -10 -4 -10 -6 0 -11 5 -11 10 0 6 2 10 4 10 3 0 8 -4 11 -10z
m-225 -10 c0 -5 -4 -10 -10 -10 -5 0 -10 5 -10 10 0 6 5 10 10 10 6 0 10 -4
10 -10z m-113 -6 c-3 -3 -12 -4 -19 -1 -8 3 -5 6 6 6 11 1 17 -2 13 -5z m260
-34 c3 -21 -11 -27 -22 -10 -8 13 3 45 12 36 4 -4 8 -15 10 -26z m-67 -35 c-7
-8 -17 -15 -22 -15 -11 0 14 29 26 30 5 0 3 -7 -4 -15z m480 11 c0 -3 -4 -8
-10 -11 -5 -3 -10 -1 -10 4 0 6 5 11 10 11 6 0 10 -2 10 -4z m-650 -56 c0 -5
-7 -10 -15 -10 -8 0 -15 5 -15 10 0 6 7 10 15 10 8 0 15 -4 15 -10z m60 0 c0
-5 -5 -10 -11 -10 -5 0 -7 5 -4 10 3 6 8 10 11 10 2 0 4 -4 4 -10z m-70 -130
c0 -5 -4 -10 -10 -10 -5 0 -10 5 -10 10 0 6 5 10 10 10 6 0 10 -4 10 -10z
m125 -30 c3 -5 -1 -10 -9 -10 -8 0 -18 5 -21 10 -3 6 1 10 9 10 8 0 18 -4 21
-10z m-28 -57 c3 -7 -3 -9 -16 -6 -12 3 -21 10 -21 15 0 13 32 6 37 -9z m-62
-2 c7 -12 -12 -24 -25 -16 -11 7 -4 25 10 25 5 0 11 -4 15 -9z m575 0 c0 -5
-7 -11 -15 -15 -15 -5 -20 5 -8 17 9 10 23 9 23 -2z m-640 -15 c0 -3 -4 -8
-10 -11 -5 -3 -10 -1 -10 4 0 6 5 11 10 11 6 0 10 -2 10 -4z m105 -6 c3 -5 1
-10 -4 -10 -6 0 -11 5 -11 10 0 6 2 10 4 10 3 0 8 -4 11 -10z m575 -62 c0 -5
-4 -8 -9 -8 -5 0 -17 -3 -25 -6 -12 -4 -15 -2 -10 9 3 8 1 18 -5 22 -26 15 -8
22 19 7 16 -9 30 -20 30 -24z m-520 7 c6 -8 9 -19 5 -25 -3 -5 -1 -10 4 -10 6
0 11 -4 11 -9 0 -13 -54 -21 -61 -9 -4 6 -12 8 -17 4 -11 -7 -38 32 -28 41 3
3 17 6 31 6 14 0 25 3 25 8 0 14 16 11 30 -6z m710 -5 c0 -5 -2 -10 -4 -10 -3
0 -8 5 -11 10 -3 6 -1 10 4 10 6 0 11 -4 11 -10z m-88 -22 c-7 -7 -12 -8 -12
-2 0 6 3 14 7 17 3 4 9 5 12 2 2 -3 -1 -11 -7 -17z m-722 -7 c0 -13 -27 -21
-46 -14 -13 5 -13 7 -2 14 17 11 48 11 48 0z m640 -30 c0 -18 -18 -21 -30 -6
-10 13 -9 15 9 15 11 0 21 -4 21 -9z m75 -1 c5 -8 11 -7 21 1 19 15 30 4 15
-15 -14 -16 -47 -10 -55 10 -6 16 10 19 19 4z m-618 -22 c-3 -8 -6 -5 -6 6 -1
11 2 17 5 13 3 -3 4 -12 1 -19z m-129 -15 c-2 -9 -9 -18 -17 -21 -8 -3 -11 0
-7 7 4 6 1 11 -8 11 -8 0 -18 5 -21 10 -4 6 7 10 25 10 24 0 31 -4 28 -17z
m702 13 c0 -3 -4 -8 -10 -11 -5 -3 -10 -1 -10 4 0 6 5 11 10 11 6 0 10 -2 10
-4z m110 -196 c0 -5 -4 -10 -10 -10 -5 0 -10 5 -10 10 0 6 5 10 10 10 6 0 10
-4 10 -10z m-680 -10 c0 -5 -4 -10 -10 -10 -5 0 -10 5 -10 10 0 6 5 10 10 10
6 0 10 -4 10 -10z m24 -18 c3 -5 -3 -15 -12 -23 -20 -16 -76 -24 -67 -9 3 6
12 10 19 10 8 0 19 7 26 15 14 17 26 19 34 7z m-94 -27 c0 -9 -6 -12 -16 -8
-13 5 -13 7 -2 14 17 11 18 11 18 -6z m-65 -25 c3 -6 -4 -10 -17 -10 -18 0
-20 2 -8 10 19 12 18 12 25 0z m-25 -40 c0 -5 -4 -10 -10 -10 -5 0 -10 5 -10
10 0 6 5 10 10 10 6 0 10 -4 10 -10z m140 0 c0 -5 -4 -10 -10 -10 -5 0 -10 5
-10 10 0 6 5 10 10 10 6 0 10 -4 10 -10z m1 -67 c-10 -21 -62 -26 -68 -7 -4
12 70 45 75 33 2 -4 -1 -16 -7 -26z m-103 -33 c12 -20 9 -40 -6 -40 -20 1 -34
19 -27 39 8 26 17 27 33 1z m642 -2 c0 -4 -12 -8 -26 -8 -14 0 -23 4 -19 9 6
11 45 10 45 -1z m90 2 c0 -5 -2 -10 -4 -10 -3 0 -8 5 -11 10 -3 6 -1 10 4 10
6 0 11 -4 11 -10z m-220 -70 c0 -5 -5 -10 -11 -10 -5 0 -7 5 -4 10 3 6 8 10
11 10 2 0 4 -4 4 -10z m-30 -30 c0 -5 -12 -10 -27 -10 -22 0 -25 2 -13 10 20
13 40 13 40 0z m-320 -10 c0 -5 -9 -10 -20 -10 -11 0 -20 5 -20 10 0 6 9 10
20 10 11 0 20 -4 20 -10z m54 1 c3 -5 -3 -11 -13 -14 -14 -3 -18 -1 -14 9 6
16 19 18 27 5z m299 -5 c6 -16 -2 -28 -14 -20 -12 7 -11 34 0 34 5 0 11 -6 14
-14z m77 -15 c0 -11 -31 -24 -38 -16 -3 3 1 5 8 5 11 0 11 3 2 12 -19 19 -14
30 8 18 11 -6 20 -15 20 -19z m-360 -11 c0 -5 -4 -10 -10 -10 -5 0 -10 5 -10
10 0 6 5 10 10 10 6 0 10 -4 10 -10z m30 -16 c0 -8 -5 -12 -10 -9 -6 4 -8 11
-5 16 9 14 15 11 15 -7z"/>
<path d="M9122 5928 c-14 -14 -16 -28 -3 -28 9 0 24 30 18 36 -2 2 -9 -2 -15
-8z"/>
<path d="M9047 5914 c-8 -8 3 -34 15 -34 6 0 8 6 5 14 -3 8 -1 17 6 20 7 2 6
5 -4 5 -9 1 -18 -2 -22 -5z"/>
<path d="M6990 5840 c0 -5 5 -10 11 -10 5 0 7 5 4 10 -3 6 -8 10 -11 10 -2 0
-4 -4 -4 -10z"/>
<path d="M4715 5390 c-3 -5 -1 -10 4 -10 6 0 11 5 11 10 0 6 -2 10 -4 10 -3 0
-8 -4 -11 -10z"/>
<path d="M5045 4991 c-3 -5 -1 -12 5 -16 5 -3 10 1 10 9 0 18 -6 21 -15 7z"/>
<path d="M5038 4855 c-3 -16 -1 -25 7 -25 7 0 13 11 13 25 0 14 -4 25 -8 25
-4 0 -10 -11 -12 -25z"/>
<path d="M3702 4824 c-7 -8 -9 -14 -5 -14 4 0 1 -5 -7 -10 -8 -5 -10 -10 -4
-10 15 0 47 37 37 43 -4 3 -14 -1 -21 -9z"/>
<path d="M4763 4812 c-9 -16 -7 -20 18 -29 16 -6 27 -7 23 -2 -3 5 0 9 5 9 6
0 2 9 -9 20 -24 24 -23 24 -37 2z"/>
<path d="M3728 4793 c-18 -5 -31 -30 -20 -37 11 -7 55 17 54 29 -1 11 -11 14
-34 8z"/>
<path d="M3785 4780 c-3 -5 -1 -10 4 -10 6 0 11 5 11 10 0 6 -2 10 -4 10 -3 0
-8 -4 -11 -10z"/>
<path d="M5010 4760 c0 -5 5 -10 10 -10 6 0 10 5 10 10 0 6 -4 10 -10 10 -5 0
-10 -4 -10 -10z"/>
<path d="M5037 4674 c3 -7 9 -14 14 -14 14 0 10 17 -5 23 -10 4 -13 1 -9 -9z"/>
<path d="M4972 4654 c10 -10 20 -16 22 -13 3 3 -5 11 -17 18 -21 13 -21 12 -5
-5z"/>
<path d="M4810 4640 c0 -5 5 -10 11 -10 5 0 7 5 4 10 -3 6 -8 10 -11 10 -2 0
-4 -4 -4 -10z"/>
<path d="M5010 4623 c0 -14 8 -18 32 -16 18 1 34 2 36 2 2 1 -3 8 -12 16 -21
21 -56 19 -56 -2z"/>
<path d="M4750 4391 c0 -11 5 -23 10 -26 6 -3 10 3 10 14 0 11 -4 23 -10 26
-5 3 -10 -3 -10 -14z"/>
<path d="M4057 4341 c-4 -17 -3 -21 5 -13 5 5 8 16 6 23 -3 8 -7 3 -11 -10z"/>
<path d="M5172 3239 c-46 -9 -72 -36 -72 -74 0 -39 19 -57 90 -83 66 -24 80
-55 33 -73 -23 -9 -37 -7 -76 9 -46 20 -47 20 -57 2 -27 -51 144 -80 191 -33
27 27 29 75 5 102 -10 11 -38 25 -62 32 -57 17 -82 42 -64 64 15 18 45 19 90
4 26 -9 34 -9 41 2 13 20 11 26 -8 34 -38 16 -79 21 -111 14z"/>
<path d="M5390 3100 l0 -140 25 0 25 0 0 140 0 140 -25 0 -25 0 0 -140z"/>
<path d="M5540 3100 l0 -140 25 0 c25 0 25 0 25 95 0 52 3 95 8 95 4 0 38 -43
77 -95 52 -72 75 -95 92 -95 23 0 23 1 23 140 l0 140 -26 0 -25 0 3 -89 c1
-49 1 -92 -2 -94 -3 -3 -36 37 -75 89 -59 78 -74 94 -97 94 l-28 0 0 -140z"/>
<path d="M5945 3221 c-67 -40 -87 -112 -53 -181 39 -74 122 -100 198 -62 67
33 35 61 -37 31 -28 -11 -37 -11 -67 4 -19 9 -42 30 -51 47 -44 85 58 174 145
125 18 -9 29 -10 37 -3 20 16 16 26 -17 43 -40 21 -118 19 -155 -4z"/>
<path d="M6210 3100 l0 -140 105 0 c98 0 105 1 105 20 0 18 -7 20 -80 20 l-80
0 0 40 0 40 70 0 c63 0 70 2 70 20 0 18 -7 20 -70 20 l-70 0 0 40 0 40 80 0
c73 0 80 2 80 20 0 19 -7 20 -105 20 l-105 0 0 -140z"/>
<path d="M6648 3223 c-21 -15 -24 -22 -16 -36 9 -17 12 -17 33 -3 30 20 79 21
94 2 17 -20 1 -48 -77 -131 -34 -38 -61 -73 -59 -79 2 -7 43 -12 105 -14 97
-3 102 -2 102 18 0 18 -6 20 -65 20 -36 0 -65 4 -65 8 0 4 20 27 44 51 24 24
52 61 62 82 17 39 17 40 -3 67 -17 23 -29 27 -74 30 -39 2 -62 -3 -81 -15z"/>
<path d="M6938 3211 c-32 -29 -33 -32 -33 -110 0 -74 2 -83 26 -107 35 -34
102 -43 148 -19 56 28 78 124 47 199 -19 46 -51 66 -108 66 -39 0 -54 -6 -80
-29z m122 -19 c31 -25 40 -114 16 -160 -14 -28 -22 -32 -56 -32 -52 0 -70 26
-70 103 0 48 4 62 25 82 29 30 55 32 85 7z"/>
<path d="M7261 3224 c-48 -34 -65 -130 -37 -199 35 -84 169 -86 212 -3 12 22
15 49 12 96 -4 58 -8 68 -36 93 -26 23 -42 29 -80 29 -28 0 -57 -7 -71 -16z
m114 -39 c21 -20 25 -34 25 -82 0 -77 -18 -103 -69 -103 -51 0 -64 18 -69 95
-4 58 -2 66 21 89 33 33 61 33 92 1z"/>
<path d="M7550 3222 c-15 -12 -24 -33 -27 -63 -4 -38 -2 -48 22 -72 33 -32 87
-37 124 -10 24 16 24 16 17 -13 -11 -47 -42 -66 -100 -62 -56 3 -75 -15 -31
-32 114 -43 207 55 174 184 -15 61 -47 86 -109 86 -31 0 -56 -6 -70 -18z m120
-41 c14 -27 13 -47 -6 -65 -24 -25 -71 -20 -90 9 -15 23 -15 27 0 50 21 32 80
35 96 6z"/>
</g>
</svg>
